<?xml version="1.0" standalone="no"?>
<!DOCTYPE svg PUBLIC "-//W3C//DTD SVG 1.1//EN" "http://www.w3.org/Graphics/SVG/1.1/DTD/svg11.dtd" >
<svg xmlns="http://www.w3.org/2000/svg">
<metadata></metadata>
<defs>
<font id="motiva_sans_bolditalic" horiz-adv-x="1527" >
<font-face units-per-em="2048" ascent="1540" descent="-508" />
<missing-glyph horiz-adv-x="573" />
<glyph horiz-adv-x="2048" />
<glyph horiz-adv-x="2048" />
<glyph unicode="&#xd;" horiz-adv-x="2048" />
<glyph unicode=" "  horiz-adv-x="573" />
<glyph unicode="&#x09;" horiz-adv-x="573" />
<glyph unicode="&#xa0;" horiz-adv-x="573" />
<glyph unicode="!" horiz-adv-x="671" d="M86 178q16 85 71.5 125.5t127.5 40.5q85 0 135.5 -55t32.5 -156q-16 -86 -72 -128t-127 -42q-84 0 -135 56t-33 159zM201 477l131 961h336l-211 -961h-256z" />
<glyph unicode="&#x22;" horiz-adv-x="868" d="M217 985l39 455h244l-123 -455h-160zM592 985l41 455h244l-123 -455h-162z" />
<glyph unicode="#" horiz-adv-x="1382" d="M113 381l32 178h283l100 328h-286l32 180h310l110 367h187l-111 -367h272l109 367h184l-108 -367h299l-33 -180h-319l-97 -328h316l-31 -178h-338l-113 -381h-186l113 381h-277l-115 -381h-188l117 381h-262zM616 559h275l98 328h-274z" />
<glyph unicode="$" horiz-adv-x="1191" d="M0 88l152 254q166 -96 352 -96q128 0 197 46t69 116q0 54 -59.5 94t-210.5 100q-152 61 -232 139t-80 197q0 192 136 314.5t352 146.5l31 217h223l-47 -217q106 -13 191 -47.5t132 -81.5l-168 -230q-59 46 -143.5 75.5t-161.5 29.5q-96 0 -158.5 -39.5t-62.5 -104.5 q0 -36 32 -67t65.5 -48.5t119.5 -56.5q8 -4 13 -6t12.5 -5.5t13.5 -6.5q179 -79 255.5 -156.5t76.5 -183.5q0 -199 -148 -337t-374 -165l-27 -202h-227l45 200q-208 19 -369 121z" />
<glyph unicode="%" horiz-adv-x="1630" d="M102 0l1229 1434h176l-1224 -1434h-181zM109 1022q0 133 57 233.5t150 151.5t206 51q132 0 212.5 -78.5t80.5 -218.5q0 -197 -120 -314.5t-300 -117.5q-131 0 -208.5 77.5t-77.5 215.5zM317 1030q0 -135 107 -135q83 0 129.5 65t46.5 201q0 133 -104 133 q-78 0 -128.5 -67t-50.5 -197zM815 270q0 133 58 234t151.5 152t206.5 51q132 0 212.5 -78.5t80.5 -218.5q0 -196 -120 -314.5t-300 -118.5q-131 0 -210 78t-79 215zM1026 279q0 -136 107 -136q83 0 129.5 66.5t46.5 202.5q0 131 -105 131q-78 0 -128 -67t-50 -197z" />
<glyph unicode="&#x26;" horiz-adv-x="1542" d="M147 285q0 132 78.5 234t245.5 204l14 10q-66 76 -99.5 145.5t-33.5 155.5q0 188 135.5 310t358.5 122q162 0 259 -80.5t97 -205.5q0 -135 -74.5 -239.5t-216.5 -197.5l-28 -18l174 -188q4 7 13 20.5t13 20.5l162 241l213 -102l-127 -201q-77 -119 -108 -158l192 -208 l-201 -183l-176 187q-202 -179 -465 -179q-204 0 -315 82t-111 228zM463 352q0 -51 38 -80.5t111 -29.5q121 0 250 94l-219 231l-37 -24q-76 -51 -109.5 -95.5t-33.5 -95.5zM639 1063q0 -44 24 -84t72 -92l27 16q160 104 160 221q0 51 -32.5 74t-84.5 23q-76 0 -121 -44 t-45 -114z" />
<glyph unicode="'" horiz-adv-x="489" d="M246 989l41 451h295l-119 -451h-217z" />
<glyph unicode="(" horiz-adv-x="770" d="M127 623q12 125 44 238t72.5 199.5t96.5 165.5t108 134t115.5 106.5t109.5 82t99 61.5l117 -127q-38 -30 -54 -42.5t-61 -51t-69.5 -65t-68 -76t-70 -92.5t-61 -106t-55.5 -125.5t-39 -141t-26 -162.5q-8 -65 -8 -127t6 -113.5t18.5 -101.5t26.5 -88.5t33.5 -77t37 -66 t39.5 -56.5t37.5 -47t34.5 -38l-159 -127q-388 292 -324 844z" />
<glyph unicode=")" horiz-adv-x="770" d="M-61 -94q455 347 503 858q47 434 -225 719l160 127q26 -20 50 -40.5t54 -51.5t55 -63.5t52.5 -76.5t46.5 -90.5t38 -105.5t25.5 -122t10 -139t-8.5 -157q-12 -123 -45 -236.5t-76 -200t-101.5 -167t-112 -136.5t-116.5 -107.5t-106 -80.5t-90 -57z" />
<glyph unicode="*" horiz-adv-x="937" d="M254 1116l188 80l-159 90l98 137l151 -110l21 205h176l-59 -205l180 117l61 -154l-184 -80l164 -82l-111 -149l-149 112l-17 -198h-176l58 198l-179 -112z" />
<glyph unicode="+" horiz-adv-x="1427" d="M193 623l32 176h418l78 442h178l-80 -442h420l-31 -176h-420l-77 -445h-179l78 445h-417z" />
<glyph unicode="," horiz-adv-x="587" d="M14 -225q128 104 195 235q-57 2 -94.5 50.5t-24.5 123.5q11 64 56.5 94.5t99.5 30.5q72 0 119 -53.5t30 -157.5q-21 -110 -97 -219.5t-192 -187.5z" />
<glyph unicode="-" horiz-adv-x="866" d="M96 524l31 187h672l-31 -187h-672z" />
<glyph unicode="." horiz-adv-x="641" d="M90 152q13 71 60 106t106 35q75 0 119.5 -47.5t30.5 -136.5q-13 -73 -61 -109.5t-109 -36.5q-72 0 -117 50.5t-29 138.5z" />
<glyph unicode="/" horiz-adv-x="759" d="M-18 -96l792 1636h238l-785 -1636h-245z" />
<glyph unicode="0" horiz-adv-x="1425" d="M94 545q0 131 33.5 262t101.5 249.5t161.5 210t222 145.5t274.5 54q104 0 188.5 -28.5t144 -79t99.5 -122t59 -156.5t19 -183q0 -107 -24.5 -217t-70.5 -213.5t-116 -194.5t-155.5 -158.5t-196 -107t-230.5 -39.5q-128 0 -226 43t-160 120.5t-93 182t-31 232.5zM422 569 q0 -329 231 -329q81 0 151 42t118 109.5t82.5 152t50.5 168.5t16 160q0 148 -56 235t-177 87q-83 0 -153.5 -41t-117.5 -106.5t-80.5 -149t-49 -167t-15.5 -161.5z" />
<glyph unicode="1" horiz-adv-x="1163" d="M57 0l52 279h319l139 798l-280 -121l-74 240l496 246h241l-205 -1163h306l-54 -279h-940z" />
<glyph unicode="2" horiz-adv-x="1255" d="M29 0l45 250l506 379q163 124 223.5 209.5t60.5 169.5q0 80 -63 125t-168 45q-180 0 -334 -95l-94 224q111 75 247 118t279 43q223 0 355.5 -96.5t132.5 -265.5q0 -71 -16.5 -131.5t-58.5 -129.5t-119 -144t-194 -162l-339 -252h630l-49 -287h-1044z" />
<glyph unicode="3" horiz-adv-x="1251" d="M-29 147l156 213q123 -108 338 -108q175 0 264.5 69.5t89.5 157.5q0 80 -60 115t-188 35h-219l43 229h170q140 0 220.5 56t80.5 137q0 69 -50.5 105t-145.5 36q-200 0 -365 -113l-112 232q220 153 534 153q126 0 220 -26t149 -73t81.5 -105.5t26.5 -129.5 q0 -104 -75.5 -202t-233.5 -154v-6q117 -26 183.5 -109t66.5 -202q0 -96 -45 -182.5t-129 -153.5t-214.5 -106.5t-289.5 -39.5q-153 0 -284.5 46t-211.5 126z" />
<glyph unicode="4" horiz-adv-x="1347" d="M45 322l37 210l887 912h260l-156 -877h207l-45 -245h-205l-55 -322h-311l53 322h-672zM401 567h371l86 482z" />
<glyph unicode="5" horiz-adv-x="1298" d="M43 100l145 244q145 -90 338 -90q152 0 241 76t89 190q0 85 -54 127.5t-153 42.5q-142 0 -276 -100l-183 106l134 742h946l-51 -287h-646l-53 -299q126 70 291 70q169 0 270 -97t101 -268q0 -117 -47.5 -222t-134 -185.5t-217.5 -127.5t-287 -47q-289 0 -453 125z" />
<glyph unicode="6" horiz-adv-x="1398" d="M129 541q0 132 29 259.5t94 248t158.5 211t233 145.5t306.5 55q253 0 418 -119l-145 -231q-48 35 -125 58.5t-160 23.5q-169 0 -297.5 -108.5t-171.5 -307.5q183 148 399 148q118 0 212.5 -42t153 -130t58.5 -211q0 -112 -48.5 -215.5t-132.5 -180.5t-205 -123.5 t-257 -46.5q-237 0 -378.5 148t-141.5 418zM449 520q-6 -68 15 -127.5t76 -101.5t136 -43q123 -1 206 71t83 181q0 79 -53.5 123.5t-143.5 44.5t-175 -40t-144 -108z" />
<glyph unicode="7" horiz-adv-x="1140" d="M117 0l739 1153h-706l49 285h1050l-45 -250l-749 -1188h-338z" />
<glyph unicode="8" horiz-adv-x="1280" d="M41 338q0 127 83.5 244t237.5 176q-80 36 -126 105.5t-46 162.5q0 82 40.5 159t114.5 138t190.5 98t255.5 37q225 0 352 -94.5t127 -249.5q0 -109 -69.5 -204.5t-199.5 -155.5q95 -39 146 -111t51 -172q0 -98 -45.5 -188.5t-128.5 -161t-210 -112.5t-279 -42 q-125 0 -222 30.5t-155 83t-87.5 118t-29.5 139.5zM371 412q0 -76 55.5 -124t161.5 -48q130 0 206 68t76 161q0 75 -57 121.5t-158 46.5q-68 0 -124 -20.5t-90 -54t-52 -72.5t-18 -78zM514 1008q0 -66 48.5 -104t135.5 -38q109 0 173.5 56t64.5 131q0 62 -49.5 98.5 t-132.5 36.5q-111 0 -175.5 -54t-64.5 -126z" />
<glyph unicode="9" horiz-adv-x="1277" d="M53 66l105 237q145 -61 309 -61q365 0 461 420q-94 -88 -186.5 -127t-211.5 -39q-65 0 -123.5 13.5t-113 44.5t-93 78t-59.5 118.5t-16 160.5q6 114 53 214.5t127 176t199.5 119t261.5 43.5q542 0 504 -602q-28 -410 -250.5 -648.5t-583.5 -238.5q-119 0 -221.5 26.5 t-161.5 64.5zM449 963q-7 -94 43 -146.5t147 -52.5q94 0 182.5 43t132.5 121q13 127 -57 195.5t-178 68.5q-107 0 -184 -66t-86 -163z" />
<glyph unicode=":" horiz-adv-x="636" d="M109 158q11 76 61.5 112.5t118.5 36.5q81 0 127.5 -48t32.5 -138q-13 -78 -64 -117t-119 -39q-79 0 -125 50.5t-32 142.5zM250 948q13 75 64.5 112.5t117.5 37.5q81 0 127.5 -49.5t32.5 -139.5q-11 -78 -61.5 -113.5t-120.5 -35.5q-79 0 -126 48t-34 140z" />
<glyph unicode=";" horiz-adv-x="636" d="M27 -231q126 100 180 231q-50 6 -83.5 42.5t-33.5 94.5q0 83 55 127.5t125 44.5q57 0 98.5 -37t41.5 -112q0 -117 -83.5 -243.5t-224.5 -219.5zM227 903q0 90 59.5 142.5t131.5 52.5q59 0 98 -35t39 -100q0 -92 -59 -143.5t-136 -51.5q-55 0 -94 35t-39 100z" />
<glyph unicode="&#x3c;" horiz-adv-x="1028" d="M53 563l31 174l842 469l69 -176l-688 -381l563 -403l-139 -156z" />
<glyph unicode="=" horiz-adv-x="1363" d="M166 287l31 170h946l-31 -170h-946zM238 684l30 172h946l-30 -172h-946z" />
<glyph unicode="&#x3e;" horiz-adv-x="1026" d="M53 246l707 403l-555 381l133 178l676 -471l-31 -174l-846 -473z" />
<glyph unicode="?" horiz-adv-x="1067" d="M186 1323q91 61 224.5 98t269.5 37q197 0 304.5 -81.5t107.5 -213.5q0 -67 -23.5 -124t-63 -99t-87.5 -80.5t-99.5 -77t-96.5 -79.5t-81 -97t-51 -121h-223q13 76 41 140t62 107.5t72 81.5t73 68.5t63.5 60t45.5 64.5t17 74q0 55 -46.5 85t-131.5 30q-156 0 -299 -82z M236 125q0 95 61 154t152 59q68 0 107.5 -39.5t39.5 -108.5q0 -95 -61 -155t-150 -60q-69 0 -109 40.5t-40 109.5z" />
<glyph unicode="@" horiz-adv-x="1900" d="M53 307q0 155 40 295.5t112.5 254.5t175.5 206.5t228 155t272 96t305 33.5q314 0 487.5 -157t173.5 -423q0 -182 -68.5 -334.5t-203.5 -247t-313 -94.5q-161 0 -222 103q-105 -76 -252 -76q-110 0 -181.5 70.5t-71.5 211.5q0 238 154.5 374t397.5 136q158 0 299 -59 l-122 -406q-19 -83 -2.5 -117t59.5 -34q120 0 202.5 126t82.5 316q0 198 -120 304t-351 106q-175 0 -328.5 -56.5t-266.5 -158t-178 -252.5t-65 -330q0 -230 135.5 -351.5t368.5 -121.5q165 0 332 55l32 -198q-213 -70 -413 -70q-113 0 -213 21t-190.5 69t-155 121 t-102.5 183.5t-38 248.5zM776 440q0 -62 26.5 -93.5t69.5 -31.5q85 0 154 72q1 4 3 12.5t3 12.5l90 293q-40 16 -102 16q-111 0 -177.5 -82.5t-66.5 -198.5z" />
<glyph unicode="A" d="M-14 0l790 1434h311l302 -1434h-340l-45 272h-547l-140 -272h-331zM584 520h377l-93 553z" />
<glyph unicode="B" horiz-adv-x="1312" d="M37 0l252 1434h532q445 0 445 -304q0 -46 -11.5 -92.5t-38.5 -96.5t-79.5 -96t-124.5 -79q221 -68 221 -277q0 -74 -22 -143t-69.5 -132.5t-116.5 -110.5t-170.5 -75t-223.5 -28h-594zM399 262h246q128 0 191 56t63 147q0 143 -186 143h-252zM502 840h200 q63 0 110.5 18.5t74 49t39 63.5t12.5 67q0 131 -184 131h-195z" />
<glyph unicode="C" horiz-adv-x="1337" d="M90 578q0 171 46 316t126.5 249.5t190 178t237.5 109t268 35.5t261 -36t190 -99l-188 -246q-121 95 -303 95q-76 0 -147.5 -22t-134.5 -68.5t-109.5 -112t-73.5 -158t-27 -201.5q0 -178 92 -271q90 -91 232 -91h6q188 0 360 123l115 -225q-103 -83 -248.5 -135 t-306.5 -52q-123 0 -228.5 39.5t-185.5 115t-126 192.5t-46 264z" />
<glyph unicode="D" horiz-adv-x="1423" d="M37 0l252 1434h469q291 0 465 -154.5t174 -441.5q0 -172 -61 -324.5t-171.5 -266.5t-279 -180.5t-371.5 -66.5h-477zM401 281h166q151 0 265.5 77.5t171.5 199t57 263.5q0 169 -88.5 249.5t-251.5 80.5h-166z" />
<glyph unicode="E" horiz-adv-x="1239" d="M37 0l252 1434h971l-46 -267h-661l-55 -311h567l-47 -268h-567l-56 -320h662l-49 -268h-971z" />
<glyph unicode="F" horiz-adv-x="1148" d="M37 0l252 1432h915l-47 -267h-604l-68 -372h529l-47 -269h-529l-90 -524h-311z" />
<glyph unicode="G" horiz-adv-x="1472" d="M84 561q0 128 33.5 255.5t104.5 245t170.5 208t242 144.5t307.5 54q308 0 496 -165l-185 -228q-134 103 -321 103q-103 0 -189 -34t-144 -90.5t-99 -131t-59.5 -154.5t-18.5 -162q0 -173 81.5 -260.5t235.5 -87.5q150 0 262 92l46 232h-322l45 249h621l-111 -645 q-114 -102 -268 -159.5t-322 -57.5q-97 0 -184.5 21t-165.5 67t-134.5 114t-89 168t-32.5 222z" />
<glyph unicode="H" horiz-adv-x="1515" d="M37 0l252 1434h311l-102 -584h632l103 584h309l-252 -1434h-311l104 584h-632l-103 -584h-311z" />
<glyph unicode="I" horiz-adv-x="571" d="M37 0l252 1434h311l-252 -1434h-311z" />
<glyph unicode="J" horiz-adv-x="935" d="M-63 0l67 258q75 -16 180 -16q125 0 200.5 59.5t98.5 204.5l164 928h318l-166 -934q-89 -537 -582 -537q-182 0 -280 37z" />
<glyph unicode="K" horiz-adv-x="1443" d="M43 0l252 1434h313l-102 -580l586 580h419l-700 -635l487 -799h-399l-315 592l-150 -137l-78 -455h-313z" />
<glyph unicode="L" horiz-adv-x="1128" d="M37 0l252 1434h311l-205 -1153h660l-47 -281h-971z" />
<glyph unicode="M" horiz-adv-x="1787" d="M37 0l252 1434h278l301 -1020l645 1020h302l-252 -1434h-297l145 840l-518 -795h-180l-234 795l-147 -840h-295z" />
<glyph unicode="N" horiz-adv-x="1501" d="M37 0l252 1434h264l502 -899l157 899h318l-252 -1434h-264l-510 891l-156 -891h-311z" />
<glyph unicode="O" horiz-adv-x="1576" d="M88 586q0 129 35.5 255.5t108.5 239t174 198.5t241 136.5t301 50.5q154 0 272.5 -46.5t191.5 -129.5t109 -194q33 -102 33 -224v-20q-4 -178 -70 -339.5t-177.5 -282t-271 -192t-341.5 -71.5q-273 0 -439.5 164.5t-166.5 454.5zM420 608q0 -163 85.5 -256.5t229.5 -93.5 q91 0 171 36t136 95.5t97 136.5t60.5 159.5t19.5 164.5q0 155 -82.5 240.5t-231.5 85.5q-94 0 -174.5 -35.5t-136.5 -94t-96 -133t-59 -152.5t-19 -153z" />
<glyph unicode="P" horiz-adv-x="1261" d="M37 0l252 1434h506q240 0 361.5 -106t121.5 -288q0 -77 -21.5 -153.5t-71.5 -152t-123.5 -133t-186 -93t-250.5 -35.5h-195l-82 -473h-311zM477 739h189q74 0 129.5 25t85.5 65t44.5 83t14.5 87q0 84 -49 126t-154 42h-184z" />
<glyph unicode="Q" horiz-adv-x="1591" d="M88 586q0 129 35.5 255.5t108.5 239t174 198.5t241 136.5t301 50.5q154 0 272.5 -46.5t191.5 -129.5t109 -194q33 -102 33 -224v-20q-8 -272 -151 -495t-377 -324l363 -178l-187 -234l-502 346h-6q-273 0 -439.5 164.5t-166.5 454.5zM420 608q0 -163 85.5 -256.5 t229.5 -93.5q91 0 171 36t136 95.5t97 136.5t60.5 159.5t19.5 164.5q0 155 -82.5 240.5t-231.5 85.5q-94 0 -174.5 -35.5t-136.5 -94t-96 -133t-59 -152.5t-19 -153z" />
<glyph unicode="R" horiz-adv-x="1374" d="M37 0l252 1434h538q510 0 510 -381q0 -165 -90.5 -304.5t-269.5 -211.5l242 -537h-347l-202 477h-238l-84 -477h-311zM477 745h211q83 0 146 24.5t96.5 63.5t50 81t16.5 85q0 86 -54 127t-179 41h-211z" />
<glyph unicode="S" horiz-adv-x="1234" d="M8 111l133 254q177 -99 379 -99q140 0 210.5 50.5t70.5 123.5q0 32 -15 55t-49 41t-68 31t-93 34t-103 40q-66 29 -112.5 57t-89 69t-64 97.5t-21.5 128.5q0 91 34.5 172.5t102.5 148t183 105.5t262 39q158 0 282 -41t197 -104l-168 -228q-130 105 -309 105 q-120 0 -188 -46t-68 -116q0 -28 13.5 -50.5t34 -38t55 -31t65.5 -25.5t78 -26.5t80 -29.5q162 -65 231.5 -150.5t69.5 -199.5q0 -95 -40 -183t-115.5 -160t-199 -115.5t-276.5 -43.5q-138 0 -271.5 35.5t-230.5 100.5z" />
<glyph unicode="T" horiz-adv-x="1337" d="M190 1167l50 267h1173l-47 -267h-430l-205 -1167h-311l203 1167h-433z" />
<glyph unicode="U" horiz-adv-x="1431" d="M116 339q-1 19 -1 39q0 65 12 142l162 914h311l-160 -906q-6 -37 -6 -70q0 -82 42 -133q58 -71 190 -71t215 71t106 203l160 906h311l-160 -914q-21 -118 -68.5 -212t-112 -157t-147 -105t-170.5 -60.5t-186 -18.5q-81 0 -151 13t-132 41t-106.5 71.5t-74 105 t-34.5 141.5z" />
<glyph unicode="V" horiz-adv-x="1482" d="M193 1434h344l178 -1072l553 1072h344l-801 -1434h-324z" />
<glyph unicode="W" horiz-adv-x="2086" d="M186 1434h299l129 -934l480 934h219l162 -928l419 928h324l-707 -1434h-219l-170 969l-512 -969h-219z" />
<glyph unicode="X" horiz-adv-x="1449" d="M-86 0l666 733l-377 701h358l217 -484l369 484h383l-637 -697l430 -737h-367l-249 510l-410 -510h-383z" />
<glyph unicode="Y" horiz-adv-x="1357" d="M182 1434h363l200 -562l404 562h342l-649 -865l-99 -569h-315l100 571z" />
<glyph unicode="Z" horiz-adv-x="1382" d="M37 0l35 199l866 968h-659l47 267h1067l-33 -191l-889 -975h760l-47 -268h-1147z" />
<glyph unicode="[" horiz-adv-x="657" d="M-18 -270l337 1884h459l-37 -211h-223l-262 -1462h223l-37 -211h-460z" />
<glyph unicode="\" horiz-adv-x="829" d="M215 1540h229l191 -1636h-229z" />
<glyph unicode="]" horiz-adv-x="653" d="M-74 -270l39 211h221l256 1462h-221l37 211h461l-332 -1884h-461z" />
<glyph unicode="^" horiz-adv-x="1361" d="M104 831l625 719h213l371 -719h-316l-215 424l-362 -424h-316z" />
<glyph unicode="_" horiz-adv-x="1425" d="M74 -250l43 244h1179l-43 -244h-1179z" />
<glyph unicode="`" horiz-adv-x="716" d="M305 1540h338l78 -295h-174z" />
<glyph unicode="a" horiz-adv-x="1253" d="M76 416q0 185 82 343t226 251.5t316 93.5q33 0 62 -2t58.5 -7t44 -7.5t47.5 -10.5t40 -10h246l-147 -813q-6 -36 6.5 -54t36.5 -18q33 0 49 2l-37 -174q-67 -28 -166 -28q-165 0 -165 165q0 14 1 29q-57 -101 -136 -151t-194 -50q-165 0 -267.5 118t-102.5 323zM387 446 q0 -103 42.5 -164t135.5 -61t160 77.5t90 207.5l55 321q-60 29 -147 29q-104 0 -183 -62.5t-116 -154t-37 -193.5z" />
<glyph unicode="b" horiz-adv-x="1191" d="M53 47l256 1489h301l-106 -600q53 82 140 125t190 43q153 0 242 -102.5t89 -270.5q0 -82 -16 -166t-48 -170.5t-87 -161t-126.5 -133t-173.5 -92t-222 -33.5q-113 0 -232.5 19.5t-206.5 52.5zM389 262q62 -20 135 -20q82 0 147.5 42.5t101.5 107.5t54.5 131.5t18.5 125.5 q0 90 -42.5 142.5t-115.5 52.5q-88 0 -154 -65.5t-88 -190.5z" />
<glyph unicode="c" horiz-adv-x="1040" d="M82 451q0 96 26 189.5t79 178t127.5 148.5t179 101.5t225.5 37.5q234 0 373 -129l-144 -205q-88 78 -223 78q-82 0 -149 -31.5t-108.5 -84t-64 -116.5t-22.5 -131q0 -123 64.5 -192.5t170.5 -69.5q136 0 256 97l101 -203q-83 -72 -193 -112t-231 -40q-221 0 -344 135 t-123 349z" />
<glyph unicode="d" horiz-adv-x="1257" d="M78 416q0 98 23.5 194t74 185.5t123 157t178.5 108.5t232 41q114 0 198 -35l84 473h295l-227 -1284q-7 -36 6 -55t35 -19q33 0 51 2l-37 -174q-67 -28 -162 -28q-90 0 -130 48q-35 41 -35 121q0 12 1 25q-99 -203 -339 -203q-168 0 -269.5 119.5t-101.5 323.5zM401 467 q0 -116 45.5 -172.5t120.5 -56.5q88 0 158 75t94 203l47 297q-71 31 -153 31q-141 0 -226.5 -109t-85.5 -268z" />
<glyph unicode="e" horiz-adv-x="1130" d="M80 446q2 130 49 248.5t132 210t213 145.5t280 54q164 0 260 -70q94 -69 94 -181q0 -109 -61 -195q-60 -84 -161 -135.5t-227 -78t-268 -26.5h-20q20 -193 250 -193q93 0 174.5 29t136.5 80l102 -203q-181 -164 -465 -164q-232 0 -362 129q-127 126 -127 340v10zM389 594 q198 2 327.5 49.5t129.5 124.5q0 38 -30.5 58t-86.5 20q-120 0 -211 -69.5t-129 -182.5z" />
<glyph unicode="f" horiz-adv-x="806" d="M-174 -430l55 240q50 -13 88 -13q113 0 137 148l154 889h-147l43 245h145l31 152q34 162 132 245t281 83q117 0 185 -33l-58 -226q-63 15 -106 15q-61 0 -94 -25t-45 -82l-27 -129h234l-43 -245h-236l-166 -961q-28 -170 -134 -249t-271 -79q-106 0 -158 25z" />
<glyph unicode="g" horiz-adv-x="1200" d="M27 -350l88 237q136 -88 309 -88q128 0 204 52.5t99 168.5l37 193q-119 -174 -318 -174q-67 0 -130.5 27t-115.5 78.5t-84 134.5t-32 186q0 125 46 241.5t125.5 205t196.5 141.5t250 53q69 0 145.5 -11.5t119.5 -27.5l231 -6l-186 -1055q-18 -100 -57 -178.5t-93.5 -131 t-125.5 -87t-149.5 -49.5t-170.5 -15q-107 0 -215.5 29.5t-173.5 75.5zM408 494q0 -100 43.5 -152.5t123.5 -52.5t148.5 63t87.5 176l51 287q-68 31 -157 31q-136 0 -216.5 -100.5t-80.5 -251.5z" />
<glyph unicode="h" horiz-adv-x="1294" d="M51 0l228 1241q2 10 2 19q0 47 -52 47q-29 0 -55 -11l49 232q53 22 154 22q187 0 187 -181q0 -39 -9 -87l-74 -403h13q66 114 166 169.5t214 55.5q168 0 242 -94q52 -66 53 -173q0 -45 -10 -96l-84 -477q-2 -8 -2 -16q0 -23 13 -37t32 -14q20 0 56 6l-41 -195 q-63 -24 -170 -24q-95 0 -145 44.5t-50 127.5q0 34 10 82l84 428q8 37 8 66q0 112 -114 112q-120 0 -208 -120t-126 -335l-74 -389h-297z" />
<glyph unicode="i" horiz-adv-x="630" d="M106 231l150 842h303l-149 -817q-5 -29 6.5 -46t36.5 -17q31 0 55 4l-37 -197q-63 -25 -166 -25q-209 0 -209 172q0 38 10 84zM289 1370q3 82 60.5 135.5t144.5 53.5q76 1 114 -39q36 -37 35 -92v-9q-3 -77 -63.5 -130.5t-151.5 -53.5q-70 0 -106 37q-33 34 -33 89v9z " />
<glyph unicode="j" horiz-adv-x="622" d="M-268 -420l59 230q39 -13 96 -13q73 0 113.5 30.5t52.5 104.5l205 1147h295l-217 -1210q-28 -160 -143 -242t-289 -82q-114 0 -172 35zM287 1397q16 85 76.5 131.5t132.5 46.5q73 0 116 -46q31 -34 31 -88q0 -21 -4 -44q-14 -85 -75 -130.5t-136 -45.5q-72 0 -114 45 q-31 34 -31 90q0 19 4 41z" />
<glyph unicode="k" horiz-adv-x="1247" d="M63 0l222 1243q6 31 -6.5 47.5t-36.5 16.5q-12 0 -52 -9l39 226q91 26 160 26q122 0 164 -70q25 -41 25 -114q0 -52 -13 -119l-57 -309q137 166 338 166q144 0 221.5 -76.5t77.5 -198.5q0 -50 -14.5 -98t-47.5 -99.5t-95.5 -100.5t-149.5 -89l82 -163q22 -39 43 -58.5 t49 -19.5q40 0 75 26l58 -174q-31 -31 -96.5 -54.5t-153.5 -23.5t-147 33.5t-95 118.5l-98 213l-141 -51l-52 -289h-299zM453 506l147 49q231 77 231 193q0 39 -25 63.5t-73 24.5q-81 0 -159 -80.5t-119 -241.5z" />
<glyph unicode="l" horiz-adv-x="600" d="M76 227l194 1024q7 31 -6.5 46.5t-40.5 15.5t-51 -8l41 229q83 25 184 25q119 1 163 -69q28 -44 28 -116q0 -42 -10 -94l-191 -1004q-1 -8 -1 -15q0 -42 46 -42q17 0 47 6l-45 -229q-78 -19 -151 -19q-46 0 -85.5 13t-73 40.5t-47.5 77.5q-7 26 -7 58q0 28 6 61z" />
<glyph unicode="m" horiz-adv-x="1912" d="M78 0l151 823q2 13 2 23q0 49 -53 49q-25 0 -55 -10l35 192q81 21 143 21q86 0 134 -47q43 -42 43 -121q0 -10 -1 -21l-6 -30h6q87 126 181.5 175.5t218.5 49.5q51 0 94 -12.5t79 -38.5t58.5 -72.5t26.5 -108.5q131 232 376 232q165 0 243 -103q52 -69 53 -174 q0 -52 -13 -114l-96 -459q-7 -28 7 -47t38 -19q19 0 49 5l-37 -193q-63 -25 -174 -25q-117 0 -165 65q-30 41 -29 106q0 38 10 85l90 443q5 26 5 49q0 46 -20 76q-28 45 -98 45q-86 0 -158.5 -78t-105.5 -250l-92 -516h-287l121 692q4 21 4 39q0 43 -20 72q-28 41 -97 41 q-100 0 -173 -103t-111 -305l-78 -436h-299z" />
<glyph unicode="n" horiz-adv-x="1312" d="M78 0l155 823q2 11 2 20q0 52 -53 52q-22 0 -57 -10l33 192q81 21 143 21q87 0 135 -47q42 -42 42 -121q0 -10 -1 -21l-12 -59h6q88 140 191 197t239 57q166 0 246 -96q56 -67 56 -171q0 -45 -11 -98l-94 -473q-6 -30 7.5 -47.5t39.5 -17.5q21 0 49 4l-39 -195 q-60 -24 -170 -24q-117 0 -163 66q-30 43 -30 111q0 37 9 81l84 428q7 33 7 60q0 112 -126 112q-107 0 -191 -104.5t-120 -303.5l-80 -436h-297z" />
<glyph unicode="o" horiz-adv-x="1232" d="M82 446q0 129 42.5 245.5t121 207t201 144t272.5 53.5q100 0 185 -29.5t149.5 -86t101.5 -146t37 -203.5q0 -126 -43.5 -242.5t-122 -208.5t-200.5 -147.5t-267 -55.5q-214 0 -345.5 127t-131.5 342zM381 467q0 -111 52.5 -174.5t150.5 -63.5q138 0 223.5 111.5 t85.5 269.5q0 115 -54 174.5t-155 59.5q-93 0 -163.5 -54t-105 -139t-34.5 -184z" />
<glyph unicode="p" horiz-adv-x="1249" d="M12 -422l221 1245q2 11 2 20q0 52 -55 52q-20 0 -55 -10l33 192q87 21 155 21q87 0 135 -50q42 -45 42 -131q0 -11 -1 -22l-6 -31h6q68 121 159 177.5t212 56.5q168 0 260 -118t92 -323q0 -126 -41.5 -248t-116 -221t-189 -160t-249.5 -61q-142 0 -225 68l-82 -457h-297z M430 264q55 -55 154 -55t175.5 58.5t115 152t38.5 205.5q0 103 -44.5 157t-123.5 54q-94 0 -165.5 -70t-96.5 -207z" />
<glyph unicode="q" horiz-adv-x="1230" d="M78 430q0 136 48.5 260.5t131.5 215t199 144.5t245 54q33 0 62 -2t58.5 -7t44 -7.5t47.5 -10.5t40 -10h246l-262 -1485h-264l102 594q-58 -103 -134 -152t-196 -49q-159 0 -263.5 121.5t-104.5 333.5zM389 459q0 -107 47 -172.5t133 -65.5q91 0 158 77.5t90 207.5l55 321 q-60 29 -147 29q-64 0 -119 -22.5t-94 -61.5t-67.5 -90t-42 -107.5t-13.5 -115.5z" />
<glyph unicode="r" horiz-adv-x="882" d="M70 0l147 788q3 14 3 26q0 46 -46 46q-29 0 -57 -8l43 225q83 23 164 23q155 0 155 -149q0 -15 -2 -31l-8 -58h12q56 122 131 182t176 60q81 0 134 -31l-54 -274q-51 22 -123 22q-105 0 -182 -95t-108 -261l-88 -465h-297z" />
<glyph unicode="s" horiz-adv-x="976" d="M8 82l107 225q117 -86 282 -86q97 0 149 32t52 85q0 20 -10.5 34.5t-35 25.5t-48.5 18.5t-67.5 21t-76.5 25.5q-111 40 -168 102.5t-57 159.5q0 164 133 272.5t355 108.5q227 0 362 -109l-119 -202q-53 36 -127 57.5t-141 21.5q-82 0 -126 -32.5t-44 -77.5q0 -10 2.5 -19 t8.5 -16.5t12.5 -13.5t19 -12.5t22.5 -11t28.5 -10.5t32.5 -10.5t38 -12t41 -13.5q138 -43 202 -101t64 -163q0 -182 -145 -293t-375 -111q-114 0 -212.5 30t-158.5 75z" />
<glyph unicode="t" horiz-adv-x="872" d="M96 819l45 254h160l21 115l155 158h172l-47 -273h260l-45 -254h-260l-88 -495q-3 -15 -3 -28q0 -63 69 -63q61 0 143 29l35 -211q-144 -74 -307 -74q-150 0 -213 68q-45 48 -45 137q0 37 8 80l100 557h-160z" />
<glyph unicode="u" horiz-adv-x="1271" d="M113 889l37 188q77 27 188 27q194 0 195 -169q0 -39 -11 -87l-84 -438q-5 -29 -5 -53q0 -51 23 -78q34 -41 101 -41q39 0 77 15t76.5 46.5t68 90.5t42.5 138l101 551h297l-152 -843q-6 -30 6 -45t31 -15q43 0 61 2l-39 -174q-63 -29 -159 -29q-88 0 -133 35 q-38 30 -38 103q0 13 1 28l12 62h-8q-104 -228 -361 -228q-81 0 -143.5 22.5t-107 71t-57.5 125.5q-5 32 -5 70q0 52 10 115l86 450q2 10 2 18q0 48 -53 48q-24 0 -59 -6z" />
<glyph unicode="v" horiz-adv-x="1167" d="M70 889l36 188q71 27 164 27q83 0 126 -40t63 -120q21 -89 52 -292t42 -355l381 776h305l-600 -1079h-264l-193 835q-8 36 -21.5 51t-39.5 15q-27 0 -51 -6z" />
<glyph unicode="w" horiz-adv-x="1761" d="M61 889l37 188q71 27 164 27q84 0 126.5 -40t60.5 -120q31 -126 63 -596l330 725h248l96 -700l340 700h307l-571 -1079h-263l-92 698l-334 -698h-254l-147 835q-6 35 -20.5 50.5t-40.5 15.5q-29 0 -50 -6z" />
<glyph unicode="x" horiz-adv-x="1126" d="M-41 0l2 16l461 535l-131 244q-26 43 -50.5 61t-56.5 18q-47 0 -67 -10l30 211q58 21 138 21t136.5 -43t106.5 -138l82 -165l236 323h346l-2 -12l-459 -524l168 -283q39 -59 78 -59q38 0 70 14l-25 -205q-60 -27 -150 -27q-125 0 -206 146l-123 213l-230 -336h-354z" />
<glyph unicode="y" horiz-adv-x="1155" d="M-29 -399l76 219q64 -29 127 -29q52 0 91.5 37.5t74.5 112.5l51 100l-221 780q-9 38 -21.5 53t-39.5 15q-8 0 -50 -6l37 188q70 27 160 27q84 0 128 -40t62 -122l136 -612l346 749h315l-643 -1229q-81 -157 -170 -227t-225 -70q-132 0 -234 54z" />
<glyph unicode="z" horiz-adv-x="1052" d="M-2 0l33 195l606 624h-465l45 254h858l-37 -205l-626 -624h528l-41 -244h-901z" />
<glyph unicode="{" horiz-adv-x="821" d="M180 625l31 184q87 8 147 58t78 145l49 276q29 166 162 262.5t334 96.5l-29 -172q-98 -8 -161 -60.5t-80 -146.5l-62 -342q-13 -77 -72 -133.5t-122 -71.5l-2 -4q54 -17 95.5 -77t29.5 -132l-62 -344q-17 -92 27 -144.5t139 -60.5l-27 -172q-204 0 -301.5 96.5 t-68.5 263.5l49 281q35 187 -154 197z" />
<glyph unicode="|" horiz-adv-x="473" d="M-20 -205l335 1895h181l-336 -1895h-180z" />
<glyph unicode="}" horiz-adv-x="821" d="M-35 -213l33 172q99 8 161 60t81 145l61 344q13 73 75 132.5t124 76.5v4q-57 15 -97.5 71.5t-27.5 133.5l63 342q17 94 -27.5 146.5t-140.5 60.5l33 172q202 0 300 -96.5t67 -262.5l-49 -276q-18 -94 25.5 -144.5t127.5 -58.5l-35 -184q-188 -10 -223 -197l-51 -281 q-29 -166 -163 -263t-337 -97z" />
<glyph unicode="~" horiz-adv-x="1247" d="M78 461q57 166 154.5 246.5t213.5 80.5q66 0 180 -36.5t175 -36.5q34 0 74 25t59 57h246q-32 -89 -80 -155t-103 -103t-110.5 -54.5t-112.5 -17.5q-60 0 -177.5 37t-172.5 37q-70 0 -125 -80h-221z" />
<glyph unicode="&#xa1;" horiz-adv-x="571" d="M90 -371l211 963h256l-127 -963h-340zM297 934q14 88 70 129t129 41q85 0 135 -54.5t31 -158.5q-13 -82 -69.5 -125t-125.5 -43q-85 0 -136.5 56t-33.5 155z" />
<glyph unicode="&#xa2;" horiz-adv-x="1114" d="M82 639q0 113 36.5 221.5t104.5 199.5t176 153t240 77l27 209h182l-47 -209q174 -20 291 -125l-144 -204q-87 77 -223 77q-108 0 -188.5 -54.5t-118 -135.5t-37.5 -172q0 -123 64.5 -192.5t170.5 -69.5q137 0 256 96l101 -203q-147 -129 -357 -147l-22 -189h-182l45 191 q-179 29 -277 158t-98 319z" />
<glyph unicode="&#xa3;" horiz-adv-x="1247" d="M-10 166q80 51 116.5 96.5t49.5 124.5l43 246h-121l28 160h121l43 237q25 144 102.5 243.5t185 145t237.5 45.5q132 0 226 -24.5t173 -81.5l-182 -236q-97 72 -226 72q-94 0 -148.5 -48t-74.5 -161l-35 -192h369l-29 -160h-368l-31 -176q-16 -90 -40 -139.5t-85 -84.5 q73 15 127 15q43 0 114.5 -10.5t125.5 -10.5q77 0 184 21l6 -244q-113 -37 -274 -37q-75 0 -180.5 13.5t-165.5 13.5q-138 0 -254 -25z" />
<glyph unicode="&#xa4;" horiz-adv-x="1417" d="M0 242l207 176q-45 88 -45 207q0 248 153 411l-141 170l152 127l147 -178q150 78 324 78q176 0 295 -88l219 186l106 -127l-217 -184q49 -93 49 -215q0 -235 -139 -397l137 -166l-151 -129l-140 170q-154 -86 -342 -86q-180 0 -301 92l-207 -176zM461 662 q0 -95 52.5 -148t145.5 -53q129 0 210 83.5t81 221.5q0 95 -53 149t-145 54q-130 0 -210.5 -83.5t-80.5 -223.5z" />
<glyph unicode="&#xa5;" horiz-adv-x="1282" d="M-51 332l28 162h381l23 131h-381l29 161h280l-284 648h358l203 -582l409 582h338l-512 -648h277l-29 -161h-375l-2 -2l-22 -129h377l-27 -162h-379l-57 -332h-314l60 332h-381z" />
<glyph unicode="&#xa6;" horiz-adv-x="454" d="M35 160l139 792h2l64 365h180l-131 -742l-74 -415h-180z" />
<glyph unicode="&#xa7;" horiz-adv-x="1089" d="M66 63l112 205q46 -29 127 -49t156 -20q203 0 203 112q0 24 -14 40.5t-44 28.5t-59.5 20t-79.5 20.5t-86 23.5q-186 57 -186 220q0 95 53 169t147 111q-52 28 -83 80t-31 117q0 148 124.5 236.5t329.5 88.5q206 0 340 -67l-110 -205q-116 43 -246 43q-92 0 -135 -30.5 t-43 -78.5q0 -24 12.5 -41.5t48.5 -32t59.5 -21.5t84.5 -22q6 -2 9.5 -2.5t9 -2t9.5 -2.5q117 -29 180.5 -82.5t63.5 -147.5q0 -93 -55.5 -163.5t-157.5 -114.5q66 -26 102.5 -77.5t36.5 -115.5q0 -143 -134 -238.5t-345 -95.5q-245 0 -399 94zM438 692q0 -112 144 -112 q87 0 137.5 41.5t50.5 117.5q0 53 -37 84t-104 31q-84 0 -137.5 -44.5t-53.5 -117.5z" />
<glyph unicode="&#xa8;" horiz-adv-x="851" d="M242 1378q25 129 149 129q62 0 96 -38t21 -113q-11 -64 -52.5 -95.5t-93.5 -31.5q-64 0 -98.5 38t-21.5 111zM641 1378q11 66 51 97.5t96 31.5q61 0 94.5 -38t20.5 -113q-10 -63 -49.5 -95t-91.5 -32q-64 0 -99 38t-22 111z" />
<glyph unicode="&#xa9;" horiz-adv-x="1665" d="M72 594q0 191 76 356.5t201 276t285.5 173t330.5 62.5q177 0 319 -74.5t225.5 -218t83.5 -331.5q0 -154 -49.5 -292t-135.5 -242.5t-198.5 -181t-243.5 -116t-266 -39.5q-178 0 -320 75t-225 219t-83 333zM238 614q0 -224 134 -355.5t357 -131.5q141 0 268 50t221.5 139 t150.5 220t56 283q0 221 -133.5 352.5t-353.5 131.5q-188 0 -347.5 -86t-256 -245t-96.5 -358zM451 651q0 110 38.5 199t103 144.5t144.5 84.5t168 29q152 0 248 -80l-86 -131q-79 61 -180 61q-116 0 -192.5 -73.5t-76.5 -198.5q0 -90 52 -141t141 -51q107 0 193 63l53 -135 q-125 -90 -285 -90q-144 0 -232.5 85t-88.5 234z" />
<glyph unicode="&#xaa;" horiz-adv-x="776" d="M6 778q18 99 89.5 155t189.5 56q101 0 125 -2l6 43q3 25 -17.5 38t-74.5 13q-92 0 -148 -47l-80 127q126 111 310 111q143 0 199.5 -56.5t37.5 -166.5l-45 -254q-3 -22 7 -37t32 -15h29l-41 -159q-49 -17 -113 -17q-57 0 -93 28t-40 77q-38 -50 -91 -77.5t-108 -27.5 q-90 0 -141 59t-33 152zM221 788q-10 -59 49 -59q50 0 105 51l10 64q-58 4 -80 4q-75 0 -84 -60z" />
<glyph unicode="&#xab;" horiz-adv-x="1101" d="M45 518l404 416l137 -139l-285 -275l188 -276l-165 -138zM502 518l405 416l135 -139l-284 -275l188 -276l-166 -138z" />
<glyph unicode="&#xac;" horiz-adv-x="1329" d="M135 670l33 174h1036l-100 -572h-166l70 398h-873z" />
<glyph unicode="&#xad;" horiz-adv-x="866" d="M96 524l31 187h672l-31 -187h-672z" />
<glyph unicode="&#xae;" horiz-adv-x="1665" d="M72 594q0 191 76 356.5t201 276t285.5 173t330.5 62.5q177 0 319 -74.5t225.5 -218t83.5 -331.5q0 -154 -49.5 -292t-135.5 -242.5t-198.5 -181t-243.5 -116t-266 -39.5q-178 0 -320 75t-225 219t-83 333zM238 614q0 -224 134 -355.5t357 -131.5q141 0 268 50t221.5 139 t150.5 220t56 283q0 221 -133.5 352.5t-353.5 131.5q-188 0 -347.5 -86t-256 -245t-96.5 -358zM512 358l131 742h277q112 0 169.5 -52.5t57.5 -136.5q0 -82 -46 -143.5t-122 -91.5l115 -318h-172l-88 273h-125l-50 -273h-147zM735 764h117q59 0 93 33t34 84q0 75 -98 75 h-113z" />
<glyph unicode="&#xaf;" horiz-adv-x="1087" d="M387 1286l25 148h579l-26 -148h-578z" />
<glyph unicode="&#xb0;" horiz-adv-x="833" d="M72 1057q0 94 35.5 169t94 120.5t128.5 69.5t143 24q123 0 207 -70t84 -201q0 -93 -36.5 -168.5t-96 -121t-130 -69.5t-143.5 -24q-122 0 -204 70.5t-82 200.5zM283 1085q0 -52 28.5 -80t79.5 -28q70 0 116 44t46 120q0 54 -30 82t-83 28q-71 0 -114 -44t-43 -122z" />
<glyph unicode="&#xb1;" horiz-adv-x="1204" d="M16 14l29 174h1016l-29 -174h-1016zM158 815l28 174h420l80 445h176l-80 -445h420l-28 -174h-420l-78 -444h-176l78 444h-420z" />
<glyph unicode="&#xb4;" horiz-adv-x="1044" d="M416 1210l178 293h338l-342 -293h-174z" />
<glyph unicode="&#xb6;" horiz-adv-x="1062" d="M80 1024q0 66 13 122.5t47 111t86 92.5t135.5 61t191.5 23h408l-254 -1434h-177l222 1253h-123l-221 -1253h-177l127 725q-134 25 -206 101t-72 198z" />
<glyph unicode="&#xb7;" horiz-adv-x="530" d="M219 633q16 81 71 122.5t122 41.5q85 0 135.5 -55.5t32.5 -151.5q-14 -82 -69 -124t-126 -42q-81 0 -132.5 56t-33.5 153z" />
<glyph unicode="&#xb8;" horiz-adv-x="716" d="M55 -354q97 17 130.5 43.5t33.5 62.5q0 14 -10 24.5t-25 10.5q-20 0 -41 -12l-84 84l101 147h143l-74 -104q28 4 39 4q66 0 102 -35t36 -90q0 -93 -84 -169.5t-236 -90.5z" />
<glyph unicode="&#xba;" horiz-adv-x="813" d="M43 920q16 87 55.5 155t94 108.5t117 61.5t128.5 21q64 0 120 -21t98 -61.5t59 -109t2 -154.5q-16 -86 -57 -154.5t-96.5 -110t-118.5 -63t-128 -21.5q-140 0 -222 90.5t-52 258.5zM274 920q-12 -61 8.5 -101.5t67.5 -40.5t82 37.5t47 104.5q10 63 -12 101t-68 38 q-45 0 -79 -38t-46 -101z" />
<glyph unicode="&#xbb;" horiz-adv-x="1097" d="M53 244l285 276l-188 275l169 139l273 -416l-410 -412zM508 244l285 276l-189 275l172 139l271 -416l-410 -412z" />
<glyph unicode="&#xbc;" horiz-adv-x="2230" d="M170 608l31 178h178l78 435l-160 -52l-33 156l295 117h154l-117 -656h178l-31 -178h-573zM635 -274l727 1853h211l-725 -1853h-213zM1376 164l27 160l485 505h191l-88 -497h131l-31 -168h-129l-31 -170h-202l28 170h-381zM1606 332h178l43 239z" />
<glyph unicode="&#xbd;" horiz-adv-x="2230" d="M170 608l31 178h178l78 435l-160 -52l-33 156l295 117h154l-117 -656h178l-31 -178h-573zM635 -274l727 1853h211l-725 -1853h-213zM1395 -8l30 176l269 180q81 56 123.5 103.5t48.5 99.5q3 45 -25.5 68.5t-81.5 23.5q-99 0 -205 -61l-57 161q171 101 344 101 q136 0 210.5 -62.5t68.5 -163.5q-6 -97 -70.5 -177t-194.5 -160l-159 -99h366l-34 -190h-633z" />
<glyph unicode="&#xbe;" horiz-adv-x="2230" d="M121 666l78 165q129 -55 219 -55q168 0 174 103q5 42 -26 62t-101 20h-127l27 153h110q63 0 99.5 25t39.5 69q3 36 -23 56t-83 20q-93 0 -213 -65l-57 141q67 46 152.5 74t170.5 28q151 0 226.5 -53.5t70.5 -142.5q-3 -70 -47.5 -126.5t-128.5 -86.5q146 -43 137 -174 q-6 -130 -121 -211.5t-276 -81.5q-92 0 -171 22.5t-130 57.5zM635 -274l727 1853h211l-725 -1853h-213zM1376 164l27 160l485 505h191l-88 -497h131l-31 -168h-129l-31 -170h-202l28 170h-381zM1606 332h178l43 239z" />
<glyph unicode="&#xbf;" horiz-adv-x="1105" d="M170 -82q0 67 23.5 124t63 99t87.5 80.5t99.5 77t96.5 79.5t81 97t51 121h223q-13 -76 -41 -140t-62 -107.5t-72 -81.5t-73 -68.5t-64 -60t-46 -64.5t-17 -74q0 -55 46.5 -85t131.5 -30q156 0 299 82l78 -209q-91 -61 -224 -98t-269 -37q-197 0 -304.5 81.5t-107.5 213.5 zM666 891q0 95 61 155t150 60q69 0 109 -40.5t40 -109.5q0 -95 -61 -154t-152 -59q-68 0 -107.5 39.5t-39.5 108.5z" />
<glyph unicode="&#xc0;" d="M-14 0l790 1434h311l302 -1434h-340l-45 272h-547l-140 -272h-331zM584 520h377l-93 553zM659 1901h338l78 -295h-174z" />
<glyph unicode="&#xc1;" d="M-14 0l790 1434h311l302 -1434h-340l-45 272h-547l-140 -272h-331zM584 520h377l-93 553zM850 1565l178 293h338l-342 -293h-174z" />
<glyph unicode="&#xc2;" d="M-14 0l790 1434h311l302 -1434h-340l-45 272h-547l-140 -272h-331zM584 520h377l-93 553zM623 1585l292 285h172l183 -285h-226l-75 113l-113 -113h-233z" />
<glyph unicode="&#xc3;" d="M-14 0l790 1434h311l302 -1434h-340l-45 272h-547l-140 -272h-331zM584 520h377l-93 553zM598 1663q40 99 108 149t134 50q49 0 93 -20.5t77 -41t57 -20.5q32 0 59.5 25t57.5 75l145 -68q-42 -99 -108 -157t-142 -58q-45 0 -86.5 19.5t-77.5 39t-67 19.5 q-39 0 -66.5 -22.5t-52.5 -69.5z" />
<glyph unicode="&#xc4;" d="M-14 0l790 1434h311l302 -1434h-340l-45 272h-547l-140 -272h-331zM584 520h377l-93 553zM639 1739q25 129 149 129q62 0 96 -38.5t21 -113.5q-11 -64 -52 -95.5t-93 -31.5q-64 0 -99 38.5t-22 111.5zM1038 1739q11 66 51.5 97.5t96.5 31.5q61 0 94 -38.5t20 -113.5 q-10 -63 -49.5 -95t-91.5 -32q-64 0 -99 38.5t-22 111.5z" />
<glyph unicode="&#xc5;" d="M-14 0l790 1434h311l302 -1434h-340l-45 272h-547l-140 -272h-331zM584 520h377l-93 553zM797 1704q14 74 72 122t139 48t122 -48t27 -122q-12 -74 -70 -122t-139 -48q-82 0 -122.5 47.5t-28.5 122.5zM905 1704q-5 -31 10 -52.5t50 -21.5t58 21.5t28 52.5t-10.5 52.5 t-49.5 21.5q-36 0 -58.5 -21.5t-27.5 -52.5z" />
<glyph unicode="&#xc6;" horiz-adv-x="1990" d="M-33 0l996 1434h1042l-49 -279h-584l-51 -297h508l-51 -276h-506l-55 -316h589l-45 -266h-905l43 240h-416l-157 -240h-359zM657 504h287l105 594z" />
<glyph unicode="&#xc7;" horiz-adv-x="1337" d="M90 578q0 171 46 316t126.5 249.5t190 178t237.5 109t268 35.5t261 -36t190 -99l-188 -246q-121 95 -303 95q-76 0 -147.5 -22t-134.5 -68.5t-109.5 -112t-73.5 -158t-27 -201.5q0 -178 92 -271t238 -91q188 0 360 123l115 -225q-93 -75 -222.5 -125.5t-273.5 -59.5 l-47 -67q28 4 39 4q66 0 101.5 -35t35.5 -90q0 -43 -20 -85.5t-58.5 -79t-100.5 -62.5t-140 -33l-31 125q97 17 130.5 43.5t33.5 62.5q0 14 -10 24.5t-25 10.5q-20 0 -41 -12l-84 84l78 112q-109 13 -200.5 58t-160 119.5t-107 185t-38.5 244.5z" />
<glyph unicode="&#xc8;" horiz-adv-x="1239" d="M37 0l252 1434h971l-46 -267h-661l-55 -311h567l-47 -268h-567l-56 -320h662l-49 -268h-971zM485 1901h338l78 -295h-174z" />
<glyph unicode="&#xc9;" horiz-adv-x="1239" d="M37 0l252 1434h971l-46 -267h-661l-55 -311h567l-47 -268h-567l-56 -320h662l-49 -268h-971zM678 1565l178 293h338l-342 -293h-174z" />
<glyph unicode="&#xca;" horiz-adv-x="1239" d="M37 0l252 1434h971l-46 -267h-661l-55 -311h567l-47 -268h-567l-56 -320h662l-49 -268h-971zM451 1585l292 285h172l183 -285h-226l-75 113l-113 -113h-233z" />
<glyph unicode="&#xcb;" horiz-adv-x="1239" d="M37 0l252 1434h971l-46 -267h-661l-55 -311h567l-47 -268h-567l-56 -320h662l-49 -268h-971zM467 1739q25 129 149 129q62 0 96 -38.5t21 -113.5q-11 -64 -52 -95.5t-93 -31.5q-64 0 -99 38.5t-22 111.5zM866 1739q11 66 51.5 97.5t96.5 31.5q61 0 94 -38.5t20 -113.5 q-10 -63 -49.5 -95t-91.5 -32q-64 0 -99 38.5t-22 111.5z" />
<glyph unicode="&#xcc;" horiz-adv-x="571" d="M37 0l252 1434h311l-252 -1434h-311zM176 1901h338l78 -295h-174z" />
<glyph unicode="&#xcd;" horiz-adv-x="571" d="M37 0l252 1434h311l-252 -1434h-311zM367 1565l178 293h338l-342 -293h-174z" />
<glyph unicode="&#xce;" horiz-adv-x="571" d="M37 0l252 1434h311l-252 -1434h-311zM139 1585l293 285h172l182 -285h-225l-76 113l-112 -113h-234z" />
<glyph unicode="&#xcf;" horiz-adv-x="571" d="M37 0l252 1434h311l-252 -1434h-311zM156 1739q25 129 149 129q62 0 96 -38.5t21 -113.5q-11 -64 -52.5 -95.5t-93.5 -31.5q-64 0 -98.5 38.5t-21.5 111.5zM555 1739q11 66 51 97.5t96 31.5q61 0 94.5 -38.5t20.5 -113.5q-10 -63 -49.5 -95t-91.5 -32q-64 0 -99 38.5 t-22 111.5z" />
<glyph unicode="&#xd0;" horiz-adv-x="1521" d="M53 616l37 213h197l106 605h469q291 0 465 -154.5t174 -441.5q0 -172 -61 -324.5t-171.5 -266.5t-279 -180.5t-371.5 -66.5h-477l109 616h-197zM506 281h166q114 0 208.5 45t156 120.5t95 172.5t33.5 202q0 169 -88.5 249.5t-251.5 80.5h-166l-57 -322h213l-39 -213h-211 z" />
<glyph unicode="&#xd1;" horiz-adv-x="1501" d="M37 0l252 1434h264l502 -899l157 899h318l-252 -1434h-264l-510 891l-156 -891h-311zM590 1663q40 100 107.5 149.5t133.5 49.5q49 0 93 -20.5t77.5 -41t57.5 -20.5q32 0 59.5 25t57.5 75l145 -68q-42 -99 -108 -157t-142 -58q-45 0 -86.5 19.5t-77.5 39t-67 19.5 q-39 0 -66.5 -22.5t-52.5 -69.5z" />
<glyph unicode="&#xd2;" horiz-adv-x="1576" d="M88 586q0 129 35.5 255.5t108.5 239t174 198.5t241 136.5t301 50.5q154 0 272.5 -46.5t191.5 -129.5t109 -194t33 -244q-4 -178 -70 -339.5t-177.5 -282t-271 -192t-341.5 -71.5q-273 0 -439.5 164.5t-166.5 454.5zM420 608q0 -163 85.5 -256.5t229.5 -93.5q91 0 171 36 t136 95.5t97 136.5t60.5 159.5t19.5 164.5q0 155 -82.5 240.5t-231.5 85.5q-94 0 -174.5 -35.5t-136.5 -94t-96 -133t-59 -152.5t-19 -153zM674 1911h338l78 -295h-175z" />
<glyph unicode="&#xd3;" horiz-adv-x="1576" d="M88 586q0 129 35.5 255.5t108.5 239t174 198.5t241 136.5t301 50.5q154 0 272.5 -46.5t191.5 -129.5t109 -194t33 -244q-4 -178 -70 -339.5t-177.5 -282t-271 -192t-341.5 -71.5q-273 0 -439.5 164.5t-166.5 454.5zM420 608q0 -163 85.5 -256.5t229.5 -93.5q91 0 171 36 t136 95.5t97 136.5t60.5 159.5t19.5 164.5q0 155 -82.5 240.5t-231.5 85.5q-94 0 -174.5 -35.5t-136.5 -94t-96 -133t-59 -152.5t-19 -153zM864 1573l178 293h338l-342 -293h-174z" />
<glyph unicode="&#xd4;" horiz-adv-x="1576" d="M88 586q0 129 35.5 255.5t108.5 239t174 198.5t241 136.5t301 50.5q154 0 272.5 -46.5t191.5 -129.5t109 -194t33 -244q-4 -178 -70 -339.5t-177.5 -282t-271 -192t-341.5 -71.5q-273 0 -439.5 164.5t-166.5 454.5zM420 608q0 -163 85.5 -256.5t229.5 -93.5q91 0 171 36 t136 95.5t97 136.5t60.5 159.5t19.5 164.5q0 155 -82.5 240.5t-231.5 85.5q-94 0 -174.5 -35.5t-136.5 -94t-96 -133t-59 -152.5t-19 -153zM637 1595l293 285h172l182 -285h-225l-76 113l-113 -113h-233z" />
<glyph unicode="&#xd5;" horiz-adv-x="1576" d="M88 586q0 129 35.5 255.5t108.5 239t174 198.5t241 136.5t301 50.5q154 0 272.5 -46.5t191.5 -129.5t109 -194t33 -244q-4 -178 -70 -339.5t-177.5 -282t-271 -192t-341.5 -71.5q-273 0 -439.5 164.5t-166.5 454.5zM420 608q0 -163 85.5 -256.5t229.5 -93.5q91 0 171 36 t136 95.5t97 136.5t60.5 159.5t19.5 164.5q0 155 -82.5 240.5t-231.5 85.5q-94 0 -174.5 -35.5t-136.5 -94t-96 -133t-59 -152.5t-19 -153zM612 1673q40 99 108 149t134 50q49 0 93 -20.5t77 -41t57 -20.5q32 0 59.5 25t57.5 75l145 -67q-42 -99 -107.5 -157t-141.5 -58 q-45 0 -87 19.5t-78 39t-67 19.5q-39 0 -66.5 -23t-52.5 -70z" />
<glyph unicode="&#xd6;" horiz-adv-x="1576" d="M88 586q0 129 35.5 255.5t108.5 239t174 198.5t241 136.5t301 50.5q154 0 272.5 -46.5t191.5 -129.5t109 -194t33 -244q-4 -178 -70 -339.5t-177.5 -282t-271 -192t-341.5 -71.5q-273 0 -439.5 164.5t-166.5 454.5zM420 608q0 -163 85.5 -256.5t229.5 -93.5q91 0 171 36 t136 95.5t97 136.5t60.5 159.5t19.5 164.5q0 155 -82.5 240.5t-231.5 85.5q-94 0 -174.5 -35.5t-136.5 -94t-96 -133t-59 -152.5t-19 -153zM653 1749q13 67 53 98t97 31q62 0 96 -38.5t21 -113.5q-11 -64 -52.5 -95.5t-93.5 -31.5q-64 0 -99 38.5t-22 111.5zM1053 1749 q11 66 51 97.5t96 31.5q61 0 94.5 -38.5t20.5 -113.5q-10 -63 -49.5 -95t-91.5 -32q-64 0 -99 38.5t-22 111.5z" />
<glyph unicode="&#xd7;" horiz-adv-x="1257" d="M27 150l458 391l-321 391l170 141l319 -391l459 391l119 -143l-459 -389l322 -391l-170 -144l-320 391l-459 -389z" />
<glyph unicode="&#xd8;" horiz-adv-x="1581" d="M74 -143l194 262q-180 163 -180 467q0 129 35.5 255.5t108.5 239t174 198.5t241 136.5t301 50.5q159 0 283 -51l166 223l149 -82l-170 -231q184 -164 178 -473q-4 -178 -70 -339.5t-177.5 -282t-271 -192t-341.5 -71.5q-156 0 -280 56l-197 -265zM420 608q0 -130 53 -213 l563 760q-65 21 -131 21q-94 0 -174.5 -35.5t-136.5 -94t-96 -133t-59 -152.5t-19 -153zM604 283q61 -25 131 -25q91 0 171 36t136 95.5t97 136.5t60.5 159.5t19.5 164.5q0 120 -50 197z" />
<glyph unicode="&#xd9;" horiz-adv-x="1431" d="M116 339q-5 80 11 181l162 914h311l-160 -906q-23 -132 35.5 -203t190.5 -71t215 71t106 203l160 906h311l-160 -914q-21 -118 -68.5 -212t-112 -157t-147 -105t-170.5 -60.5t-186 -18.5q-81 0 -151 13t-132 41t-106.5 71.5t-74 105t-34.5 141.5zM600 1901h338l78 -295 h-174z" />
<glyph unicode="&#xda;" horiz-adv-x="1431" d="M116 339q-5 80 11 181l162 914h311l-160 -906q-23 -132 35.5 -203t190.5 -71t215 71t106 203l160 906h311l-160 -914q-21 -118 -68.5 -212t-112 -157t-147 -105t-170.5 -60.5t-186 -18.5q-81 0 -151 13t-132 41t-106.5 71.5t-74 105t-34.5 141.5zM791 1565l178 293h338 l-342 -293h-174z" />
<glyph unicode="&#xdb;" horiz-adv-x="1431" d="M116 339q-5 80 11 181l162 914h311l-160 -906q-23 -132 35.5 -203t190.5 -71t215 71t106 203l160 906h311l-160 -914q-21 -118 -68.5 -212t-112 -157t-147 -105t-170.5 -60.5t-186 -18.5q-81 0 -151 13t-132 41t-106.5 71.5t-74 105t-34.5 141.5zM563 1585l293 285h172 l182 -285h-225l-76 113l-112 -113h-234z" />
<glyph unicode="&#xdc;" horiz-adv-x="1431" d="M116 339q-5 80 11 181l162 914h311l-160 -906q-23 -132 35.5 -203t190.5 -71t215 71t106 203l160 906h311l-160 -914q-21 -118 -68.5 -212t-112 -157t-147 -105t-170.5 -60.5t-186 -18.5q-81 0 -151 13t-132 41t-106.5 71.5t-74 105t-34.5 141.5zM580 1739 q25 129 149 129q62 0 96 -38.5t21 -113.5q-11 -64 -52.5 -95.5t-93.5 -31.5q-64 0 -98.5 38.5t-21.5 111.5zM979 1739q11 66 51 97.5t96 31.5q61 0 94.5 -38.5t20.5 -113.5q-10 -63 -49.5 -95t-91.5 -32q-64 0 -99 38.5t-22 111.5z" />
<glyph unicode="&#xdd;" horiz-adv-x="1357" d="M182 1434h363l200 -562l404 562h342l-649 -865l-99 -569h-315l100 571zM756 1573l178 293h338l-342 -293h-174z" />
<glyph unicode="&#xde;" horiz-adv-x="1220" d="M37 0l252 1434h317l-39 -222h205q214 0 321 -105t107 -273q0 -74 -20 -148t-66 -147.5t-113 -129.5t-168.5 -91t-224.5 -35h-207l-47 -283h-317zM451 549h167q117 0 179.5 68t62.5 165q0 75 -45.5 114.5t-128.5 39.5h-168z" />
<glyph unicode="&#xdf;" horiz-adv-x="1310" d="M57 0l197 1122q34 192 164.5 299t367.5 107q204 0 314 -78t110 -225q0 -53 -14.5 -100.5t-33.5 -81t-57 -72t-66 -61t-78 -60.5q-19 -13 -26 -21.5t-7 -21.5q0 -22 37 -43q99 -59 129 -82q109 -88 117 -230q1 -12 1 -26q0 -66 -16.5 -128t-55.5 -121.5t-95.5 -103.5 t-143.5 -71t-194 -27q-128 0 -220 45l56 224q86 -35 164 -35q86 0 143 52.5t57 156.5q0 47 -13 81t-43.5 59t-55 38.5t-73.5 35.5q-16 7 -24 11q-61 27 -61 96q0 46 12.5 75.5t44.5 55.5q17 15 57 46t58 48t42 45.5t34 60t10 69.5q0 60 -38 92.5t-107 32.5t-124 -43 t-71 -129l-190 -1092h-308z" />
<glyph unicode="&#xe0;" horiz-adv-x="1253" d="M76 416q0 185 82 343t226 251.5t316 93.5q33 0 62 -2t58.5 -7t44 -7.5t47.5 -10.5t40 -10h246l-147 -813q-6 -36 6.5 -54t36.5 -18q33 0 49 2l-37 -174q-67 -28 -166 -28q-179 0 -164 194q-57 -101 -136 -151t-194 -50q-165 0 -267.5 118t-102.5 323zM387 446 q0 -103 42.5 -164t135.5 -61t160 77.5t90 207.5l55 321q-60 29 -147 29q-104 0 -183 -62.5t-116 -154t-37 -193.5zM473 1546h338l78 -295h-174z" />
<glyph unicode="&#xe1;" horiz-adv-x="1253" d="M76 416q0 185 82 343t226 251.5t316 93.5q33 0 62 -2t58.5 -7t44 -7.5t47.5 -10.5t40 -10h246l-147 -813q-6 -36 6.5 -54t36.5 -18q33 0 49 2l-37 -174q-67 -28 -166 -28q-179 0 -164 194q-57 -101 -136 -151t-194 -50q-165 0 -267.5 118t-102.5 323zM387 446 q0 -103 42.5 -164t135.5 -61t160 77.5t90 207.5l55 321q-60 29 -147 29q-104 0 -183 -62.5t-116 -154t-37 -193.5zM664 1210l178 293h338l-342 -293h-174z" />
<glyph unicode="&#xe2;" horiz-adv-x="1253" d="M76 416q0 185 82 343t226 251.5t316 93.5q33 0 62 -2t58.5 -7t44 -7.5t47.5 -10.5t40 -10h246l-147 -813q-6 -36 6.5 -54t36.5 -18q33 0 49 2l-37 -174q-67 -28 -166 -28q-179 0 -164 194q-57 -101 -136 -151t-194 -50q-165 0 -267.5 118t-102.5 323zM387 446 q0 -103 42.5 -164t135.5 -61t160 77.5t90 207.5l55 321q-60 29 -147 29q-104 0 -183 -62.5t-116 -154t-37 -193.5zM436 1231l293 285h172l182 -285h-225l-76 112l-112 -112h-234z" />
<glyph unicode="&#xe3;" horiz-adv-x="1253" d="M76 416q0 185 82 343t226 251.5t316 93.5q33 0 62 -2t58.5 -7t44 -7.5t47.5 -10.5t40 -10h246l-147 -813q-6 -36 6.5 -54t36.5 -18q33 0 49 2l-37 -174q-67 -28 -166 -28q-179 0 -164 194q-57 -101 -136 -151t-194 -50q-165 0 -267.5 118t-102.5 323zM387 446 q0 -103 42.5 -164t135.5 -61t160 77.5t90 207.5l55 321q-60 29 -147 29q-104 0 -183 -62.5t-116 -154t-37 -193.5zM412 1309q40 99 107.5 148.5t133.5 49.5q49 0 93 -20.5t77.5 -41t57.5 -20.5q32 0 58.5 25.5t57.5 75.5l146 -68q-42 -99 -108 -157t-142 -58 q-45 0 -86.5 19.5t-77.5 39t-67 19.5q-39 0 -66.5 -22.5t-52.5 -69.5z" />
<glyph unicode="&#xe4;" horiz-adv-x="1253" d="M76 416q0 185 82 343t226 251.5t316 93.5q33 0 62 -2t58.5 -7t44 -7.5t47.5 -10.5t40 -10h246l-147 -813q-6 -36 6.5 -54t36.5 -18q33 0 49 2l-37 -174q-67 -28 -166 -28q-179 0 -164 194q-57 -101 -136 -151t-194 -50q-165 0 -267.5 118t-102.5 323zM387 446 q0 -103 42.5 -164t135.5 -61t160 77.5t90 207.5l55 321q-60 29 -147 29q-104 0 -183 -62.5t-116 -154t-37 -193.5zM455 1384q25 129 149 129q62 0 96 -38t21 -113q-11 -64 -52.5 -95.5t-93.5 -31.5q-64 0 -98.5 38t-21.5 111zM854 1384q11 66 51 97.5t96 31.5q61 0 94.5 -38 t20.5 -113q-10 -63 -49.5 -95t-91.5 -32q-64 0 -99 38t-22 111z" />
<glyph unicode="&#xe5;" horiz-adv-x="1253" d="M76 416q0 185 82 343t226 251.5t316 93.5q33 0 62 -2t58.5 -7t44 -7.5t47.5 -10.5t40 -10h246l-147 -813q-6 -36 6.5 -54t36.5 -18q33 0 49 2l-37 -174q-67 -28 -166 -28q-179 0 -164 194q-57 -101 -136 -151t-194 -50q-165 0 -267.5 118t-102.5 323zM387 446 q0 -103 42.5 -164t135.5 -61t160 77.5t90 207.5l55 321q-60 29 -147 29q-104 0 -183 -62.5t-116 -154t-37 -193.5zM612 1350q14 74 72 122t139 48t122.5 -48t27.5 -122q-12 -74 -70 -122t-139 -48q-82 0 -123 47.5t-29 122.5zM721 1350q-5 -32 9.5 -53t49.5 -21t58 21.5 t28 52.5t-10 52t-49 21q-36 0 -58.5 -21t-27.5 -52z" />
<glyph unicode="&#xe6;" horiz-adv-x="1802" d="M41 250q0 177 129 283t365 106q127 0 219 -18l8 51q18 103 -25.5 147.5t-144.5 44.5q-76 0 -155.5 -24t-141.5 -68l-80 186q97 70 220 109t241 39q141 0 215.5 -48.5t95.5 -168.5q157 215 451 215q156 0 247.5 -72.5t90.5 -200.5q-2 -90 -48.5 -162.5t-121 -118 t-170.5 -74.5t-193 -38.5t-192 -3.5q2 -103 61 -166t176 -63q91 0 174 31t142 81l84 -198q-161 -152 -439 -152q-323 0 -395 246q-136 -246 -483 -246q-149 0 -239.5 73.5t-90.5 209.5zM326 303q0 -117 139 -117q93 0 172.5 73.5t99.5 178.5q-105 23 -190 23 q-106 0 -163.5 -44.5t-57.5 -113.5zM1061 598q80 1 155 10t144 27.5t111 53t42 79.5q0 78 -116 78q-118 0 -209 -68.5t-127 -179.5z" />
<glyph unicode="&#xe7;" horiz-adv-x="1040" d="M82 451q0 96 26 189.5t79 178t127.5 148.5t179 101.5t225.5 37.5q234 0 373 -129l-144 -205q-88 78 -223 78q-82 0 -149 -31.5t-108.5 -84t-64 -116.5t-22.5 -131q0 -123 64.5 -192.5t170.5 -69.5q136 0 256 97l101 -203q-76 -65 -175 -104.5t-208 -45.5l-47 -67 q28 4 39 4q66 0 101.5 -35t35.5 -90q0 -93 -84 -169.5t-236 -90.5l-30 125q97 17 130 43.5t33 62.5q0 14 -9.5 24.5t-24.5 10.5q-20 0 -41 -12l-84 84l80 116q-177 29 -274 158t-97 318z" />
<glyph unicode="&#xe8;" horiz-adv-x="1130" d="M80 446q2 130 49 248.5t132 210t213 145.5t280 54q165 0 260.5 -70t93.5 -186q-1 -106 -61 -190t-161 -135.5t-227 -78t-268 -26.5h-20q20 -193 250 -193q93 0 174.5 29t136.5 80l102 -203q-181 -164 -465 -164q-232 0 -362 129t-127 350zM389 594q198 2 327.5 49.5 t129.5 124.5q0 38 -30.5 58t-86.5 20q-120 0 -211 -69.5t-129 -182.5zM467 1546h338l78 -295h-174z" />
<glyph unicode="&#xe9;" horiz-adv-x="1130" d="M80 446q2 130 49 248.5t132 210t213 145.5t280 54q165 0 260.5 -70t93.5 -186q-1 -106 -61 -190t-161 -135.5t-227 -78t-268 -26.5h-20q20 -193 250 -193q93 0 174.5 29t136.5 80l102 -203q-181 -164 -465 -164q-232 0 -362 129t-127 350zM389 594q198 2 327.5 49.5 t129.5 124.5q0 38 -30.5 58t-86.5 20q-120 0 -211 -69.5t-129 -182.5zM659 1210l179 293h338l-342 -293h-175z" />
<glyph unicode="&#xea;" horiz-adv-x="1130" d="M80 446q2 130 49 248.5t132 210t213 145.5t280 54q165 0 260.5 -70t93.5 -186q-1 -106 -61 -190t-161 -135.5t-227 -78t-268 -26.5h-20q20 -193 250 -193q93 0 174.5 29t136.5 80l102 -203q-181 -164 -465 -164q-232 0 -362 129t-127 350zM389 594q198 2 327.5 49.5 t129.5 124.5q0 38 -30.5 58t-86.5 20q-120 0 -211 -69.5t-129 -182.5zM432 1231l293 285h172l182 -285h-225l-76 112l-112 -112h-234z" />
<glyph unicode="&#xeb;" horiz-adv-x="1130" d="M80 446q2 130 49 248.5t132 210t213 145.5t280 54q165 0 260.5 -70t93.5 -186q-1 -106 -61 -190t-161 -135.5t-227 -78t-268 -26.5h-20q20 -193 250 -193q93 0 174.5 29t136.5 80l102 -203q-181 -164 -465 -164q-232 0 -362 129t-127 350zM389 594q198 2 327.5 49.5 t129.5 124.5q0 38 -30.5 58t-86.5 20q-120 0 -211 -69.5t-129 -182.5zM449 1384q25 129 149 129q62 0 96 -38t21 -113q-11 -64 -52.5 -95.5t-93.5 -31.5q-64 0 -98.5 38t-21.5 111zM848 1384q11 66 51 97.5t96 31.5q61 0 94.5 -38t20.5 -113q-10 -63 -49.5 -95t-91.5 -32 q-64 0 -99 38t-22 111z" />
<glyph unicode="&#xec;" horiz-adv-x="610" d="M88 227l152 846h303l-144 -797q-9 -57 43 -57q39 0 54 6l-43 -229q-72 -21 -166 -21q-44 0 -82.5 13.5t-70 41.5t-45 79t-1.5 118zM111 1540h338l77 -295h-174z" />
<glyph unicode="&#xed;" horiz-adv-x="610" d="M88 227l152 846h303l-144 -797q-9 -57 43 -57q39 0 54 6l-43 -229q-72 -21 -166 -21q-44 0 -82.5 13.5t-70 41.5t-45 79t-1.5 118zM303 1204l178 293h338l-342 -293h-174z" />
<glyph unicode="&#xee;" horiz-adv-x="610" d="M76 1225l293 284h172l182 -284h-225l-76 112l-113 -112h-233zM88 227l152 846h303l-144 -797q-9 -57 43 -57q39 0 54 6l-43 -229q-72 -21 -166 -21q-44 0 -82.5 13.5t-70 41.5t-45 79t-1.5 118z" />
<glyph unicode="&#xef;" horiz-adv-x="610" d="M88 227l152 846h303l-144 -797q-9 -57 43 -57q39 0 54 6l-43 -229q-72 -21 -166 -21q-44 0 -82.5 13.5t-70 41.5t-45 79t-1.5 118zM92 1378q13 67 53 98t97 31q62 0 95.5 -38t20.5 -113q-11 -64 -52 -95.5t-93 -31.5q-64 0 -99 38t-22 111zM492 1378q11 66 51 97.5 t96 31.5q61 0 94.5 -38t20.5 -113q-10 -63 -50 -95t-92 -32q-64 0 -98.5 38t-21.5 111z" />
<glyph unicode="&#xf0;" horiz-adv-x="1241" d="M90 489q7 94 36.5 183.5t82 168t122 138t161 93.5t194.5 34q168 0 256 -123q-26 142 -123 260l-221 -94l-41 106l172 74q-46 38 -117 76l195 158q95 -56 172 -127l199 86l36 -109l-153 -65q182 -228 156 -564q-7 -122 -33 -234t-79.5 -220t-128.5 -187t-188 -127.5 t-251 -48.5q-227 0 -346.5 137.5t-100.5 384.5zM397 508q-14 -125 35.5 -200t155.5 -75q87 0 153.5 51.5t101.5 128t44 167.5q13 115 -36.5 187.5t-154.5 72.5q-125 0 -206 -92t-93 -240z" />
<glyph unicode="&#xf1;" horiz-adv-x="1312" d="M78 0l155 823q11 72 -51 72q-22 0 -57 -10l33 192q81 21 143 21q87 0 134.5 -47t41.5 -142l-12 -59h6q88 140 191 197t239 57q166 0 246 -96.5t45 -268.5l-94 -473q-6 -30 7.5 -47.5t39.5 -17.5q21 0 49 4l-39 -195q-60 -24 -170 -24q-116 0 -162.5 65.5t-21.5 192.5 l84 428q37 172 -119 172q-107 0 -191 -104.5t-120 -303.5l-80 -436h-297zM403 1309q40 99 108 148.5t134 49.5q49 0 93 -20.5t77 -41t57 -20.5q56 0 117 101l146 -68q-42 -99 -108 -157t-142 -58q-45 0 -87 19.5t-78 39t-67 19.5q-39 0 -66 -22.5t-52 -69.5z" />
<glyph unicode="&#xf2;" horiz-adv-x="1232" d="M82 446q0 129 42.5 245.5t121 207t201 144t272.5 53.5q100 0 185 -29.5t149.5 -86t101.5 -146t37 -203.5q0 -126 -43.5 -242.5t-122 -208.5t-200.5 -147.5t-267 -55.5q-214 0 -345.5 127t-131.5 342zM381 467q0 -111 52.5 -174.5t150.5 -63.5q138 0 223.5 111.5 t85.5 269.5q0 115 -54 174.5t-155 59.5q-93 0 -163.5 -54t-105 -139t-34.5 -184zM453 1540h338l77 -295h-174z" />
<glyph unicode="&#xf3;" horiz-adv-x="1232" d="M82 446q0 129 42.5 245.5t121 207t201 144t272.5 53.5q100 0 185 -29.5t149.5 -86t101.5 -146t37 -203.5q0 -126 -43.5 -242.5t-122 -208.5t-200.5 -147.5t-267 -55.5q-214 0 -345.5 127t-131.5 342zM381 467q0 -111 52.5 -174.5t150.5 -63.5q138 0 223.5 111.5 t85.5 269.5q0 115 -54 174.5t-155 59.5q-93 0 -163.5 -54t-105 -139t-34.5 -184zM643 1204l178 293h338l-342 -293h-174z" />
<glyph unicode="&#xf4;" horiz-adv-x="1232" d="M82 446q0 129 42.5 245.5t121 207t201 144t272.5 53.5q100 0 185 -29.5t149.5 -86t101.5 -146t37 -203.5q0 -126 -43.5 -242.5t-122 -208.5t-200.5 -147.5t-267 -55.5q-214 0 -345.5 127t-131.5 342zM381 467q0 -111 52.5 -174.5t150.5 -63.5q138 0 223.5 111.5 t85.5 269.5q0 115 -54 174.5t-155 59.5q-93 0 -163.5 -54t-105 -139t-34.5 -184zM416 1225l293 284h172l182 -284h-225l-76 112l-113 -112h-233z" />
<glyph unicode="&#xf5;" horiz-adv-x="1232" d="M82 446q0 129 42.5 245.5t121 207t201 144t272.5 53.5q100 0 185 -29.5t149.5 -86t101.5 -146t37 -203.5q0 -126 -43.5 -242.5t-122 -208.5t-200.5 -147.5t-267 -55.5q-214 0 -345.5 127t-131.5 342zM381 467q0 -111 52.5 -174.5t150.5 -63.5q138 0 223.5 111.5 t85.5 269.5q0 115 -54 174.5t-155 59.5q-93 0 -163.5 -54t-105 -139t-34.5 -184zM391 1303q40 99 108 148.5t134 49.5q49 0 93 -20.5t77 -41t57 -20.5q56 0 117 101l145 -68q-42 -99 -108 -157t-142 -58q-45 0 -86.5 19.5t-77.5 39t-67 19.5q-39 0 -66.5 -22.5t-52.5 -69.5z " />
<glyph unicode="&#xf6;" horiz-adv-x="1232" d="M82 446q0 129 42.5 245.5t121 207t201 144t272.5 53.5q100 0 185 -29.5t149.5 -86t101.5 -146t37 -203.5q0 -126 -43.5 -242.5t-122 -208.5t-200.5 -147.5t-267 -55.5q-214 0 -345.5 127t-131.5 342zM381 467q0 -111 52.5 -174.5t150.5 -63.5q138 0 223.5 111.5 t85.5 269.5q0 115 -54 174.5t-155 59.5q-93 0 -163.5 -54t-105 -139t-34.5 -184zM432 1378q13 67 53 98t97 31q62 0 95.5 -38t20.5 -113q-11 -64 -52 -95.5t-93 -31.5q-64 0 -99 38t-22 111zM831 1378q11 66 51.5 97.5t96.5 31.5q61 0 94.5 -38t20.5 -113q-10 -63 -50 -95 t-92 -32q-64 0 -99 38t-22 111z" />
<glyph unicode="&#xf7;" horiz-adv-x="1097" d="M57 453l31 174h956l-30 -174h-957zM328 125q0 81 51 124.5t119 43.5q52 0 85 -30t33 -87q0 -80 -49 -124t-116 -44q-54 0 -88.5 30t-34.5 87zM467 913q0 81 50.5 124.5t121.5 43.5q51 0 84 -29.5t33 -86.5q0 -80 -50.5 -124t-117.5 -44q-52 0 -86.5 30t-34.5 86z" />
<glyph unicode="&#xf8;" horiz-adv-x="1247" d="M74 -125l162 209q-154 132 -154 362q0 129 42.5 245.5t121 207t201 144t272.5 53.5q119 0 215 -41l151 223l132 -74l-168 -219q143 -127 143 -354q0 -126 -43.5 -242.5t-122 -208.5t-200.5 -147.5t-267 -55.5q-118 0 -205 37l-157 -223zM381 467q0 -92 33 -148l364 508 q-49 17 -94 17q-93 0 -163.5 -54t-105 -139t-34.5 -184zM514 240q37 -11 70 -11q138 0 223.5 111.5t85.5 269.5q0 74 -25 129z" />
<glyph unicode="&#xf9;" horiz-adv-x="1271" d="M113 889l37 188q77 27 188 27q239 0 184 -256l-84 -438q-16 -90 18 -131t101 -41q39 0 77 15t76.5 46.5t68 90.5t42.5 138l101 551h297l-152 -843q-6 -30 6 -45t31 -15q43 0 61 2l-39 -174q-63 -29 -159 -29q-88 0 -133 35t-37 131l12 62h-8q-104 -228 -361 -228 q-81 0 -143.5 22.5t-107 71t-57.5 125.5t5 185l86 450q11 66 -51 66q-24 0 -59 -6zM451 1540h337l78 -295h-174z" />
<glyph unicode="&#xfa;" horiz-adv-x="1271" d="M113 889l37 188q77 27 188 27q239 0 184 -256l-84 -438q-16 -90 18 -131t101 -41q39 0 77 15t76.5 46.5t68 90.5t42.5 138l101 551h297l-152 -843q-6 -30 6 -45t31 -15q43 0 61 2l-39 -174q-63 -29 -159 -29q-88 0 -133 35t-37 131l12 62h-8q-104 -228 -361 -228 q-81 0 -143.5 22.5t-107 71t-57.5 125.5t5 185l86 450q11 66 -51 66q-24 0 -59 -6zM643 1204l178 293h338l-342 -293h-174z" />
<glyph unicode="&#xfb;" horiz-adv-x="1271" d="M113 889l37 188q77 27 188 27q239 0 184 -256l-84 -438q-16 -90 18 -131t101 -41q39 0 77 15t76.5 46.5t68 90.5t42.5 138l101 551h297l-152 -843q-6 -30 6 -45t31 -15q43 0 61 2l-39 -174q-63 -29 -159 -29q-88 0 -133 35t-37 131l12 62h-8q-104 -228 -361 -228 q-81 0 -143.5 22.5t-107 71t-57.5 125.5t5 185l86 450q11 66 -51 66q-24 0 -59 -6zM416 1225l293 284h172l182 -284h-225l-76 112l-113 -112h-233z" />
<glyph unicode="&#xfc;" horiz-adv-x="1271" d="M113 889l37 188q77 27 188 27q239 0 184 -256l-84 -438q-16 -90 18 -131t101 -41q39 0 77 15t76.5 46.5t68 90.5t42.5 138l101 551h297l-152 -843q-6 -30 6 -45t31 -15q43 0 61 2l-39 -174q-63 -29 -159 -29q-88 0 -133 35t-37 131l12 62h-8q-104 -228 -361 -228 q-81 0 -143.5 22.5t-107 71t-57.5 125.5t5 185l86 450q11 66 -51 66q-24 0 -59 -6zM432 1378q13 67 53 98t97 31q62 0 95.5 -38t20.5 -113q-11 -64 -52 -95.5t-93 -31.5q-64 0 -99 38t-22 111zM831 1378q11 66 51.5 97.5t96.5 31.5q61 0 94.5 -38t20.5 -113q-10 -63 -50 -95 t-92 -32q-64 0 -99 38t-22 111z" />
<glyph unicode="&#xfd;" horiz-adv-x="1155" d="M-29 -399l76 219q64 -29 127 -29q52 0 91.5 37.5t74.5 112.5l51 100l-221 780q-9 38 -21.5 53t-39.5 15q-8 0 -50 -6l37 188q70 27 160 27q84 0 128 -40t62 -122l136 -612l346 749h315l-643 -1229q-81 -157 -170 -227t-225 -70q-132 0 -234 54zM578 1210l178 293h338 l-342 -293h-174z" />
<glyph unicode="&#xfe;" horiz-adv-x="1234" d="M-8 -422l346 1962h280l-112 -643h4q111 201 348 201q159 0 247.5 -118.5t88.5 -324.5q0 -124 -42.5 -246.5t-117 -221t-187.5 -159.5t-243 -61q-150 0 -233 68l-80 -457h-299zM412 264q52 -55 157 -55q142 0 233 122t91 292q0 105 -44 159t-124 54q-92 0 -163 -67 t-95 -200z" />
<glyph unicode="&#xff;" horiz-adv-x="1155" d="M-29 -399l76 219q64 -29 127 -29q52 0 91.5 37.5t74.5 112.5l51 100l-221 780q-9 38 -21.5 53t-39.5 15q-8 0 -50 -6l37 188q70 27 160 27q84 0 128 -40t62 -122l136 -612l346 749h315l-643 -1229q-81 -157 -170 -227t-225 -70q-132 0 -234 54zM367 1384q25 129 149 129 q62 0 96 -38t21 -113q-11 -64 -52.5 -95.5t-93.5 -31.5q-64 0 -98.5 38t-21.5 111zM766 1384q11 66 51 97.5t96 31.5q61 0 94.5 -38t20.5 -113q-10 -63 -49.5 -95t-91.5 -32q-64 0 -99 38t-22 111z" />
<glyph unicode="&#x152;" horiz-adv-x="1839" d="M98 725q26 143 86.5 261t144.5 200.5t191 138.5t225.5 82.5t247.5 26.5h869l-52 -281h-569l-53 -303h504l-43 -252h-504l-58 -317h570l-47 -281h-867q-162 0 -292.5 45t-221 132.5t-126.5 227.5t-5 320zM426 725q-37 -214 50.5 -332.5t277.5 -118.5h14l158 897h-15 q-189 0 -318 -117t-167 -329z" />
<glyph unicode="&#x153;" horiz-adv-x="1792" d="M74 408q0 143 46.5 272.5t126 222.5t190 148t233.5 55q138 0 215 -58.5t108 -181.5q73 109 186 173.5t246 64.5q148 0 234 -68.5t86 -189.5q0 -127 -86 -225t-224 -148.5t-302 -50.5q-47 0 -72 2q-1 -41 6.5 -73.5t26.5 -62.5t57.5 -46.5t95.5 -16.5q161 0 334 94 l53 -215q-196 -127 -413 -127q-289 0 -361 209q-151 -209 -397 -209q-178 0 -283.5 118.5t-105.5 312.5zM373 446q0 -101 42.5 -159t119.5 -58q123 0 205.5 120t82.5 282q0 103 -43 158t-123 55q-125 0 -204.5 -120t-79.5 -278zM1079 602q46 -4 68 -4q137 0 235.5 50.5 t98.5 125.5q0 34 -23 53t-67 19q-105 0 -188 -64.5t-124 -179.5z" />
<glyph unicode="&#x178;" horiz-adv-x="1357" d="M182 1434h363l200 -562l404 562h342l-649 -865l-99 -569h-315l100 571zM545 1749q25 129 149 129q62 0 96 -38.5t21 -113.5q-11 -64 -52 -95.5t-93 -31.5q-64 0 -99 38.5t-22 111.5zM944 1749q11 66 51.5 97.5t96.5 31.5q61 0 94 -38.5t20 -113.5q-10 -63 -49.5 -95 t-91.5 -32q-64 0 -99 38.5t-22 111.5z" />
<glyph unicode="&#x2c6;" horiz-adv-x="747" d="M172 1225l293 284h172l182 -284h-225l-76 112l-112 -112h-234z" />
<glyph unicode="&#x2dc;" horiz-adv-x="1216" d="M389 1303q40 99 108 148.5t134 49.5q49 0 93 -20.5t77 -41t57 -20.5q56 0 117 101l145 -68q-42 -99 -108 -157t-142 -58q-45 0 -86.5 19.5t-77.5 39t-67 19.5q-39 0 -66.5 -22.5t-52.5 -69.5z" />
<glyph unicode="&#x2000;" horiz-adv-x="955" />
<glyph unicode="&#x2001;" horiz-adv-x="1911" />
<glyph unicode="&#x2002;" horiz-adv-x="955" />
<glyph unicode="&#x2003;" horiz-adv-x="1911" />
<glyph unicode="&#x2004;" horiz-adv-x="637" />
<glyph unicode="&#x2005;" horiz-adv-x="477" />
<glyph unicode="&#x2006;" horiz-adv-x="318" />
<glyph unicode="&#x2007;" horiz-adv-x="318" />
<glyph unicode="&#x2008;" horiz-adv-x="238" />
<glyph unicode="&#x2009;" horiz-adv-x="382" />
<glyph unicode="&#x200a;" horiz-adv-x="106" />
<glyph unicode="&#x2010;" horiz-adv-x="866" d="M96 524l31 187h672l-31 -187h-672z" />
<glyph unicode="&#x2011;" horiz-adv-x="866" d="M96 524l31 187h672l-31 -187h-672z" />
<glyph unicode="&#x2012;" horiz-adv-x="866" d="M96 524l31 187h672l-31 -187h-672z" />
<glyph unicode="&#x2013;" horiz-adv-x="1187" d="M100 406l45 262h945l-48 -262h-942z" />
<glyph unicode="&#x2014;" horiz-adv-x="1824" d="M125 406l45 262h1530l-45 -262h-1530z" />
<glyph unicode="&#x2018;" horiz-adv-x="528" d="M154 1137q29 191 262 346l135 -66q-104 -90 -139 -162q64 -18 91.5 -68t16.5 -118q-16 -87 -70.5 -129.5t-130.5 -42.5q-86 0 -135 64.5t-30 175.5z" />
<glyph unicode="&#x2019;" horiz-adv-x="561" d="M195 956q59 50 89 85t52 79q-65 17 -93 67t-16 116q14 86 69 130t130 44q87 0 136 -64.5t30 -175.5q-34 -193 -260 -346z" />
<glyph unicode="&#x201a;" horiz-adv-x="536" d="M-18 -182q56 46 85 80.5t64 87.5q-65 4 -98 56t-19 124q14 85 68 127.5t129 42.5q88 0 137.5 -64t30.5 -176q-37 -192 -260 -344z" />
<glyph unicode="&#x201c;" horiz-adv-x="978" d="M197 1044q10 249 297 418l114 -37q-118 -99 -162 -206q57 -3 94.5 -41t34.5 -109q-3 -96 -65.5 -153.5t-149.5 -57.5q-75 0 -120.5 49.5t-42.5 136.5zM643 1044q10 249 297 418l115 -37q-117 -101 -162 -204q55 -2 93.5 -41.5t35.5 -110.5q-3 -96 -65.5 -153.5 t-149.5 -57.5q-74 0 -120.5 49.5t-43.5 136.5z" />
<glyph unicode="&#x201d;" horiz-adv-x="978" d="M143 895q117 98 164 205q-56 2 -94.5 41.5t-34.5 109.5q1 96 64.5 153.5t150.5 57.5q74 0 119.5 -49.5t42.5 -136.5q-10 -248 -295 -418zM590 895q117 98 164 207q-55 2 -94 40t-35 109q1 96 64.5 153.5t150.5 57.5q74 0 119 -49.5t42 -136.5q-10 -249 -294 -418z" />
<glyph unicode="&#x201e;" horiz-adv-x="1036" d="M6 -182q104 90 139 162q-63 18 -90.5 69t-15.5 117q14 85 68 127.5t129 42.5q88 0 137 -64t30 -176q-33 -190 -260 -344zM457 -182q102 86 139 162q-65 18 -92 68t-15 118q14 85 68 127.5t129 42.5q88 0 138.5 -64t31.5 -176q-36 -188 -262 -344z" />
<glyph unicode="&#x2022;" horiz-adv-x="487" d="M223 610q13 70 57 104t101 34q71 0 116 -47.5t29 -133.5q-11 -67 -59 -102t-105 -35q-70 0 -112.5 48t-26.5 132z" />
<glyph unicode="&#x2026;" horiz-adv-x="1824" d="M190 178q16 85 71.5 125.5t125.5 40.5q86 0 137 -55t33 -156q-16 -86 -72 -128t-127 -42q-85 0 -136 56.5t-32 158.5zM756 178q16 84 71.5 125t124.5 41q85 0 135.5 -55t32.5 -156q-14 -86 -69 -128t-127 -42q-82 0 -134 56.5t-34 158.5zM1321 178q16 84 73 125t126 41 q85 0 136.5 -55t33.5 -156q-16 -86 -72.5 -128t-128.5 -42q-83 0 -135 56.5t-33 158.5z" />
<glyph unicode="&#x202f;" horiz-adv-x="382" />
<glyph unicode="&#x2039;" horiz-adv-x="636" d="M45 518l404 416l135 -113l-303 -301l196 -301l-153 -113z" />
<glyph unicode="&#x203a;" horiz-adv-x="641" d="M49 223l303 295l-196 295l153 119l279 -420l-418 -414z" />
<glyph unicode="&#x205f;" horiz-adv-x="477" />
<glyph unicode="&#x20ac;" horiz-adv-x="1486" d="M45 487l29 162h135q6 70 18 139h-129l29 160h143q64 166 184.5 282.5t272 172t326.5 55.5q147 0 264.5 -42t183.5 -111l-198 -213q-125 96 -293 96q-125 0 -231 -62t-169 -178h615l-62 -160h-608q-13 -54 -16 -139h571l-61 -162h-492q29 -111 105.5 -172t181.5 -61 q192 0 358 123l117 -203q-97 -85 -241 -141t-310 -56q-226 0 -379.5 131t-177.5 379h-166z" />
<glyph unicode="&#x2122;" horiz-adv-x="1886" d="M88 1212l37 222h723l-39 -222h-246l-119 -665h-235l119 665h-240zM762 547l156 887h204l189 -400l372 400h156l-156 -887h-235l82 463l-240 -283h-82l-137 279l-82 -459h-227z" />
<glyph unicode="&#xe000;" horiz-adv-x="1095" d="M0 0v1096h1096v-1096h-1096z" />
<glyph unicode="&#xfb01;" horiz-adv-x="1392" d="M-178 -422l102 232q57 -13 84 -13q61 0 105 36.5t53 88.5l162 912h-174l45 245h170l24 150q30 161 145 253.5t300 92.5q138 0 258.5 -23t191.5 -61l-84 -234q-161 74 -342 74q-147 0 -172 -123l-22 -129h340q146 0 208 -52t41 -171l-110 -567q-12 -70 43 -70q41 0 76 21 l-43 -236q-91 -29 -179 -29q-99 0 -165 62.5t-45 185.5l104 531q9 46 -7 63t-71 17h-237l-166 -934q-28 -158 -154 -256.5t-309 -98.5q-73 0 -172 33z" />
<glyph unicode="&#xfb02;" horiz-adv-x="1384" d="M-176 -371l65 234q69 -13 86 -13q59 0 103.5 37.5t54.5 85.5l152 861h-174l43 245h172l24 150q30 160 146 253t303 93q350 0 565 -143l-225 -1143q-9 -70 43 -70q42 0 75 21l-43 -236q-88 -29 -178 -29q-45 0 -85.5 14t-74 42.5t-48 78t-1.5 113.5l217 1075 q-24 14 -89.5 23.5t-131.5 9.5q-151 0 -176 -123l-24 -129h249l-43 -245h-249l-158 -881q-28 -158 -153 -256t-308 -98q-99 0 -137 30z" />
<glyph unicode="&#xfb03;" horiz-adv-x="2009" d="M-186 -430l63 240q60 -13 86 -13q59 0 103 36.5t55 88.5l160 912h-142l43 245h142l24 150q30 160 145.5 253t299.5 93q113 0 182 -31l7 -4h-1l-94 -223q-32 8 -96 13q-15 1 -27 1q-41 0 -75 -23.5t-40 -62.5l-28 -166h364l25 150q32 161 147 253.5t301 92.5 q143 0 267 -23t196 -61l-84 -234q-167 74 -352 74q-153 0 -178 -123l-23 -129h340q60 0 103 -8t77 -28t49 -53.5t19 -84t-12 -119.5l-97 -497q-6 -33 6 -51.5t37 -18.5q41 0 76 21l-43 -236q-88 -29 -178 -29q-45 0 -85.5 14t-73.5 42.5t-47.5 78t-2.5 113.5l98 514 q9 54 -8 75.5t-67 21.5h-236l-158 -881q-28 -159 -152 -256.5t-308 -97.5q-101 0 -136 30l66 234q69 -13 84 -13q60 0 105 37.5t53 85.5l151 861h-369l-165 -934q-28 -158 -152 -256.5t-301 -98.5q-101 0 -143 25z" />
<glyph unicode="&#xfb04;" horiz-adv-x="2009" d="M-186 -430l63 240q60 -13 86 -13q59 0 103 36.5t55 88.5l160 912h-142l43 245h142l24 150q30 160 145.5 253t299.5 93q113 0 182 -31l7 -4h-1l-94 -223q-32 8 -96 13q-15 1 -27 1q-41 0 -75 -23.5t-40 -62.5l-28 -166h364l25 150q32 161 147 253.5t301 92.5 q170 0 293 -33.5t236 -134.5l-224 -1118q-6 -33 6 -51.5t37 -18.5q41 0 76 21l-43 -236q-88 -29 -178 -29q-45 0 -85.5 14t-73.5 42.5t-47.5 78t-2.5 113.5l215 1077q-53 31 -182 31q-153 0 -178 -123l-23 -129h250l-45 -245h-250l-158 -881q-28 -159 -152 -256.5 t-308 -97.5q-101 0 -136 30l66 234q69 -13 84 -13q60 0 105 37.5t53 85.5l151 861h-369l-165 -934q-28 -158 -152 -256.5t-301 -98.5q-101 0 -143 25z" />
</font>
</defs>
</svg>
